<svg width="223" height="160" viewBox="0 0 223 160" fill="none" xmlns="http://www.w3.org/2000/svg">
<path d="M92.3174 159.269C89.5831 158.382 84.9121 154.495 83.0593 151.566C81.3363 148.842 81.4049 146.368 83.2748 143.791C84.777 141.721 86.9427 135.057 86.3161 134.431C85.3389 133.456 35.5392 134.585 10.0672 136.161C8.12722 136.281 6.40277 136.157 6.23486 135.886C5.66844 134.971 7.97501 134.289 11.6349 134.289C18.1663 134.289 26.9027 133.582 25.1793 133.193C23.81 132.884 23.9271 132.828 26.0577 132.774C27.4097 132.74 28.8602 132.58 29.281 132.419C29.7019 132.258 30.4151 132.495 30.8662 132.945C31.9534 134.03 33.3414 133.988 33.3414 132.87C33.3414 132.175 33.4818 132.117 33.9733 132.607C34.7354 133.368 36.1707 133.455 35.711 132.712C35.532 132.423 35.7549 132.187 36.2065 132.187C36.658 132.187 37.0274 132.423 37.0274 132.712C37.0274 133.001 37.4421 133.234 37.9489 133.23C38.6701 133.224 38.7144 133.123 38.1526 132.768C37.5466 132.385 37.5466 132.27 38.1526 132.029C39.0819 131.66 37.5419 131.57 30.4452 131.576C21.2257 131.584 27.5603 130.806 39.8783 130.418C45.6456 130.236 50.4838 129.968 50.6292 129.823C51.0937 129.359 41.1342 129.344 28.0756 129.789C23.8265 129.934 21.4963 129.852 22.2832 129.585C23.4888 129.176 23.4333 129.13 21.625 129.042C20.5389 128.989 16.4712 128.906 12.5853 128.858C6.30138 128.78 4.23062 128.481 4.95683 127.756C5.08141 127.632 15.6063 127.364 28.3458 127.161C41.0853 126.958 51.564 126.748 51.6321 126.694C52.1566 126.279 32.6482 124.684 21.8154 124.257C14.4624 123.968 7.59071 123.545 6.54474 123.319C4.88286 122.958 5.213 122.857 9.15967 122.514C13.3914 122.146 23.07 122.594 36.792 123.794C42.7808 124.318 48.9565 124.47 48.5683 124.085C48.1441 123.664 31.9486 122.196 25.1793 121.965C11.4468 121.495 3.85275 120.992 3.85275 120.55C3.85275 120.301 4.62288 120.102 5.56413 120.107C11.0309 120.135 37.3306 121.763 43.3451 122.446C47.2548 122.889 53.608 123.606 57.4628 124.038C61.3177 124.471 65.1092 124.958 65.8881 125.122C66.9703 125.35 67.1093 125.295 66.4773 124.888C66.0225 124.596 64.2453 124.109 62.5281 123.808C60.811 123.506 58.3237 123.036 57.0013 122.764C53.8207 122.108 39.5067 120.661 33.8665 120.425C21.9791 119.927 2.63691 118.258 4.64474 117.904C5.80128 117.701 9.23573 117.757 12.2767 118.03C15.3177 118.303 23.4928 118.895 30.4435 119.346C45.3771 120.316 54.4842 121.295 61.9704 122.737C64.9758 123.316 68.4168 123.927 69.6172 124.094C72.9984 124.566 74.6884 125.154 74.5443 125.808C74.4719 126.136 74.7089 126.408 75.0709 126.412C75.4329 126.416 76.3215 126.546 77.0455 126.701C78.1917 126.945 78.1576 126.882 76.7823 126.211C74.619 125.155 75.2591 125.185 81.3716 126.428C84.2765 127.019 86.7665 127.389 86.9049 127.251C87.1969 126.96 83.9408 126.037 81.258 125.651C80.2443 125.505 78.4671 125.127 77.3088 124.812C76.1504 124.496 74.847 124.22 74.4126 124.199C73.9782 124.177 73.3544 123.949 73.0264 123.693C72.6985 123.436 71.7506 123.237 70.9201 123.251C68.9679 123.284 67.196 123.02 62.038 121.927C57.3854 120.942 57.6534 120.992 50.9798 119.87C46.3962 119.099 33.5893 117.779 24.3877 117.128C21.926 116.954 18.9639 116.631 17.8056 116.41C15.9027 116.047 16.0298 116.007 19.1221 115.988C25.2586 115.952 45.919 118.177 55.1629 119.87C58.9124 120.557 62.0915 121.007 62.2279 120.871C63.208 119.893 59.671 119.298 29.436 115.354C24.8284 114.753 18.2061 114.123 14.7202 113.953C7.80029 113.617 3.65171 112.862 8.32521 112.79C13.8366 112.704 30.2005 114.434 45.8204 116.754C50.8037 117.493 55.1876 117.976 55.562 117.826C55.9532 117.669 55.7948 117.532 55.1898 117.504C54.4457 117.469 54.3331 117.33 54.8061 117.03C55.4112 116.647 49.1088 115.321 43.0785 114.564C41.9201 114.418 39.4321 114.068 37.5494 113.786C34.2571 113.293 26.0431 112.514 9.49851 111.127C4.85391 110.738 1.35384 110.197 0.809986 109.785C0.00232512 109.172 0.107886 109.093 1.74221 109.08C11.0523 109.008 33.1131 111.168 48.0823 113.618C68.8162 117.01 71.4809 117.442 76.7808 118.26C79.677 118.707 83.5777 119.126 85.4491 119.191L88.8515 119.31L89.1712 117.416C89.3471 116.375 90.1472 114.405 90.9493 113.039C91.7515 111.673 92.3276 110.485 92.2297 110.398C92.1317 110.312 89.919 110.684 87.3125 111.224C73.9357 113.997 69.0137 113.675 60.7432 109.485C56.1866 107.177 54.4384 105.912 50.6064 102.15C48.0597 99.6492 45.9759 97.3118 45.9759 96.9554C45.9759 96.5991 45.5321 95.9229 44.9895 95.4532C43.6035 94.2533 40.4239 90.0258 39.3532 87.9589C38.1213 85.5811 38.1809 81.2362 39.4758 79.0232C40.9284 76.5407 44.6081 74.4469 48.6392 73.8088C50.5051 73.5135 53.3628 73.0666 54.9895 72.8156C57.2115 72.4729 58.6524 71.8253 60.7819 70.2124C62.3409 69.0316 64.6829 67.5723 65.9861 66.9695C67.2892 66.3667 69.2501 65.168 70.3436 64.3057C71.4371 63.4435 73.4207 62.2572 74.7516 61.6695L77.1718 60.6009L75.7437 59.6658C74.9582 59.1515 73.9224 58.1427 73.4418 57.4241L71.0267 53.813C69.0106 50.7989 64.9207 41.4632 63.3203 36.2216C63.048 35.3299 62.5773 31.9004 62.2743 28.6004C61.9713 25.3004 61.6413 21.8912 61.5409 21.0237C61.2822 18.7893 62.2632 14.3667 63.2702 13.2278C64.9028 11.3811 67.4361 10.7399 71.725 11.0879C75.4572 11.3907 76.1635 11.2667 82.1693 9.25405C87.8381 7.35437 89.1868 7.09544 93.4111 7.09544C99.8587 7.09544 101.59 7.91775 109.342 14.6632C113.21 18.0295 119.018 25.0861 120.538 28.2665C121.512 30.3059 122.33 30.8173 122.33 29.3873C122.33 25.1256 135.648 10.641 145.829 3.83052L151.555 -0.00012207L155.504 0.0622757C158.84 0.114973 160.934 0.249261 165.878 0.727207C167.107 0.846128 169.632 4.14928 171.718 8.36959C174.32 13.6333 175.039 16.2171 175.31 21.2853C175.426 23.4539 175.666 27.7119 175.843 30.7472C176.376 39.9024 174.571 46.2527 170.064 51.0748C166.235 55.1711 166.15 55.4054 168.621 55.0747C171.712 54.6609 177.412 55.8412 181.005 57.6392C187.175 60.7264 187.863 60.8722 196.578 60.9398C205.894 61.0124 206.222 61.1158 211.021 65.4937C215.249 69.3503 215.763 70.527 215.038 74.6826C214.717 76.5237 214.441 79.9626 214.426 82.3243C214.392 87.4749 213.071 90.9411 209.786 94.4985C207.865 96.578 204.189 98.7037 196.314 102.289C193.998 103.343 186.693 105.459 184.396 105.74L181.956 106.039L183.343 108.322C184.555 110.316 184.965 110.606 186.596 110.621C191.451 110.664 206.836 106.544 212.638 103.647C220.575 99.6839 221.906 99.3718 222.294 101.383C223.003 105.06 213.296 111.762 200.79 116.231C198.038 117.215 195.313 118.228 194.734 118.484C194.155 118.74 192.496 119.231 191.048 119.574C185.919 120.791 185.389 121.125 185.718 122.941C185.879 123.835 186.169 126.931 186.362 129.822C186.667 134.418 186.533 135.868 185.294 141.373C184.515 144.836 183.394 148.448 182.804 149.401C181.779 151.057 179.442 152.685 178.091 152.685C177.742 152.685 176.626 153.317 175.611 154.09C172.19 156.694 167.013 157.651 163.569 156.315C162.753 155.999 161.189 155.632 160.093 155.501C157.017 155.131 148.318 151.378 146.137 149.48C143.399 147.098 139.144 140.987 137.308 136.8C136.455 134.856 135.639 133.262 135.494 133.258C135.35 133.253 134.425 134.908 133.44 136.936C130.985 141.989 126.229 148.028 122.097 151.338C118.084 154.554 108.84 158.856 104.953 159.319C99.3131 159.989 94.4749 159.97 92.3149 159.269L92.3174 159.269ZM107.996 156.667C114.879 154.331 119.928 151.324 123.58 147.386C125.567 145.244 127.377 142.667 128.058 141.011C128.688 139.478 129.059 138.934 128.885 139.799L128.57 141.368L129.566 140.062C130.834 138.401 132.368 135.098 132.977 132.721C133.238 131.704 133.658 130.045 133.913 129.033C134.682 125.97 132.618 112.679 130.689 108.272C130.35 107.497 130.266 107.795 130.371 109.411C130.45 110.615 130.332 111.488 130.109 111.351C129.887 111.213 129.671 110.228 129.63 109.161L129.555 107.221L129.178 109.324C128.907 110.835 128.77 111.057 128.69 110.112C128.629 109.389 128.492 108.143 128.387 107.343C128.279 106.531 128.412 106.022 128.686 106.192C129.971 106.984 128.356 100.255 126.915 98.8116C126.566 98.4619 126.49 98.5713 126.688 99.1386C126.853 99.6075 127.116 101.145 127.274 102.555L127.561 105.119L126.804 102.228C126.387 100.638 125.893 97.9179 125.706 96.1836C125.519 94.4494 125.253 92.9119 125.116 92.7673C124.832 92.4697 125.375 103.349 125.823 106.958C125.985 108.259 125.933 109.142 125.708 108.92C125.482 108.699 125.02 105.269 124.68 101.299L124.062 94.0813L123.922 98.549C123.844 101.006 123.593 104.672 123.362 106.696C123.073 109.235 123.013 107.77 123.171 101.965C123.439 92.0817 122.594 91.7244 122.013 101.476C121.808 104.925 121.442 108.338 121.2 109.061C120.919 109.899 120.851 109.043 121.01 106.696C121.728 96.1294 121.794 93.5981 121.319 94.87C121.049 95.5927 120.548 98.2667 120.206 100.812C119.863 103.357 119.468 105.326 119.328 105.186C119.188 105.046 119.355 102.769 119.699 100.126C120.044 97.482 120.217 95.2106 120.084 95.078C119.951 94.9453 119.304 96.5072 118.646 98.5487C117.989 100.59 117.337 102.148 117.199 102.01C117.06 101.871 117.448 100.113 118.06 98.1011C119.574 93.1245 119.42 92.4548 117.578 96.0148C116.729 97.6564 115.756 99.1711 115.416 99.3811C115.076 99.5911 114.924 99.5488 115.08 99.2873C115.235 99.0258 115.892 97.6293 116.54 96.1839C117.188 94.7385 117.845 93.342 118 93.0805C118.155 92.819 118.004 92.7766 117.664 92.9863C117.325 93.196 116.463 94.5166 115.75 95.9211C114.618 98.1508 113.38 99.6864 113.38 98.861C113.38 98.7094 114.21 97.0792 115.223 95.2386C117.204 91.6416 117.351 91.1907 116.543 91.1907C116.254 91.1907 115.518 92.2551 114.905 93.5559C114.292 94.8567 113.566 95.9211 113.291 95.9211C113.017 95.9211 112.924 95.7066 113.087 95.4445C113.249 95.1824 112.848 95.1052 112.196 95.2729C111.155 95.5406 111.096 95.4741 111.71 94.7267C112.116 94.2321 111.174 94.5435 109.459 95.4703C105.123 97.8143 96.9348 106.194 94.7144 110.559L91.867 116.157C90.8325 118.19 90.2817 121.233 89.1616 131.102C88.458 137.302 87.215 141.989 85.6747 144.252C84.3272 146.231 84.0523 148.878 84.9997 150.749C86.0777 152.879 91.2527 156.948 93.6622 157.559C94.2257 157.703 96.8372 157.847 99.4655 157.881C103.253 157.929 105.022 157.677 107.996 156.668L107.996 156.667ZM111.748 151.648C112.783 149.657 113.708 148.106 113.803 148.201C114.049 148.447 110.864 154.653 110.319 154.99C110.07 155.143 110.713 153.64 111.748 151.649L111.748 151.648ZM112.871 154.08C112.862 153.836 113.359 152.928 113.976 152.063C114.593 151.199 115.739 148.973 116.523 147.119C118.27 142.986 119.157 141.891 117.635 145.747C115.846 150.278 112.92 155.395 112.871 154.08L112.871 154.08ZM109.697 152.026C109.696 151.809 110.401 150.508 111.264 149.136C112.128 147.763 112.838 146.877 112.842 147.166C112.846 147.455 112.141 148.756 111.274 150.057C110.408 151.358 109.698 152.244 109.697 152.026ZM108.115 149.531C108.706 148.375 109.308 147.429 109.453 147.429C109.597 147.429 109.232 148.375 108.641 149.531C108.05 150.688 107.448 151.634 107.304 151.634C107.159 151.634 107.524 150.688 108.115 149.531H108.115ZM118.691 147.692C118.691 147.403 119.145 146.338 119.7 145.327C120.255 144.315 120.709 143.724 120.709 144.013C120.709 144.302 120.255 145.366 119.7 146.378C119.145 147.389 118.691 147.981 118.691 147.692ZM114.707 145.485C115.496 143.6 116.014 142.748 116.014 143.335C116.014 143.902 114.414 147.429 114.156 147.429C114.012 147.429 114.259 146.554 114.707 145.485L114.707 145.485ZM116.014 142.204C116.014 141.932 116.248 141.565 116.534 141.388C116.833 141.204 116.921 141.415 116.741 141.883C116.391 142.793 116.014 142.96 116.014 142.204ZM119.512 140.073C119.699 139.351 120.293 137.814 120.83 136.656C121.368 135.499 121.654 135.142 121.467 135.864C121.28 136.585 120.686 138.122 120.149 139.28C119.611 140.437 119.325 140.794 119.512 140.073ZM93.598 134.557C94.483 132.443 95.4377 130.723 95.461 131.2C95.4869 131.729 93.3447 136.391 93.0758 136.391C92.9406 136.391 93.1756 135.566 93.598 134.557V134.557ZM129.745 135.647C129.722 135.093 129.846 134.782 130.021 134.957C130.196 135.132 130.215 135.585 130.063 135.964C129.895 136.384 129.77 136.259 129.745 135.647V135.647ZM92.5322 131.737C92.6854 131.489 93.0614 130.629 93.3678 129.824C93.6743 129.02 94.0543 128.491 94.2124 128.648C94.5245 128.96 92.9943 132.187 92.5345 132.187C92.38 132.187 92.379 131.984 92.5322 131.737L92.5322 131.737ZM92.8865 126.142C92.8865 125.853 93.3405 124.789 93.8955 123.777C94.4505 122.765 94.9045 122.174 94.9045 122.463C94.9045 122.752 94.4505 123.817 93.8955 124.828C93.3405 125.84 92.8865 126.431 92.8865 126.142ZM96.0154 124.389C96.3445 123.714 96.7487 123.296 96.9137 123.461C97.0786 123.626 97.7516 122.641 98.4092 121.272C99.0668 119.904 99.6235 119.035 99.6463 119.342C99.7116 120.22 97.543 124.44 97.2018 124.099C97.0335 123.931 96.5631 124.204 96.1565 124.705C95.498 125.517 95.4826 125.483 96.0154 124.389L96.0154 124.389ZM92.8423 121.344C92.8423 120.799 96.4361 115.368 96.7967 115.368C97.129 115.368 95.0373 119.031 93.8315 120.562C93.2875 121.252 92.8424 121.604 92.8424 121.345L92.8423 121.344ZM96.8609 120.117C97.2939 119.251 97.8897 118.393 98.1849 118.211C98.4801 118.029 98.3483 118.6 97.892 119.481C97.4357 120.362 96.8399 121.22 96.568 121.387C96.2961 121.555 96.4279 120.984 96.8609 120.117V120.117ZM130.69 117.82C130.573 116.266 130.499 115.988 130.097 115.587C129.54 115.031 129.606 112.861 130.19 112.501C130.734 112.165 131.599 117.854 131.083 118.37C130.903 118.55 130.726 118.302 130.69 117.82L130.69 117.82ZM171.54 154.178C172.278 153.843 172.88 153.193 172.878 152.733C172.874 151.547 166.947 141.765 156.294 125.363C155.135 123.579 152.41 119.359 150.237 115.985C148.064 112.611 145.602 108.957 144.766 107.865C143.93 106.773 143.355 105.771 143.488 105.638C143.823 105.303 145.507 107.616 151.027 115.991C162.973 134.115 173.408 151.012 173.408 152.237C173.408 152.484 173.652 152.687 173.951 152.687C174.9 152.687 175.094 151.238 174.315 149.97C164.596 134.137 155.435 120.149 151.95 115.82C149.666 112.983 149.794 112.453 152.122 115.107C154.775 118.131 169.219 139.882 173.674 147.562C175.479 150.672 176.567 151.877 176.567 150.764C176.567 150.321 170.382 140.025 166.829 134.553C165.327 132.241 163.18 128.811 162.058 126.932C160.935 125.053 158.508 121.426 156.664 118.872C154.82 116.318 153.411 114.129 153.532 114.008C153.854 113.688 160.645 123.06 163.347 127.552C166.275 132.423 169.295 137.28 172.124 141.671C173.342 143.562 175.018 146.337 175.848 147.839C176.978 149.883 177.659 150.571 178.558 150.577C180.569 150.589 180.577 149.069 178.586 145.363C175.124 138.917 168.182 127.907 165.031 123.864C157.429 114.111 154.566 109.979 158.052 113.792C161.141 117.172 160.746 116.023 157.215 111.358C152.894 105.647 152.709 105.383 153.048 105.383C153.215 105.383 154.724 107.098 156.401 109.193C158.077 111.289 159.746 113.193 160.109 113.424C160.473 113.655 160.77 114.067 160.77 114.34C160.77 114.612 162.802 117.563 165.285 120.896C167.769 124.23 169.71 127.23 169.599 127.563C169.487 127.897 168.829 127.241 168.136 126.106C167.443 124.97 165.57 122.268 163.975 120.099C162.38 117.931 161.007 116.059 160.923 115.938C160.839 115.818 160.629 115.86 160.457 116.031C160.286 116.203 161.53 118.17 163.222 120.404C164.914 122.637 166.927 125.315 167.694 126.355C168.46 127.395 169.337 128.246 169.641 128.246C169.945 128.246 170.967 129.429 171.913 130.874C172.859 132.319 173.772 133.62 173.943 133.765C174.114 133.909 175.982 136.984 178.093 140.597C180.879 145.364 181.846 146.676 181.617 145.378C181.04 142.115 171.361 126.286 164.15 116.814C163.104 115.441 162.38 114.318 162.54 114.318C163.027 114.318 168.582 121.468 171.429 125.76C173.897 129.479 181.499 142.149 182.044 143.452C182.468 144.464 183.252 142.715 184.228 138.579L185.174 134.571L183.518 131.54C181.592 128.015 181.678 127.476 183.646 130.743L184.991 132.977L184.713 128.564C184.56 126.138 184.308 123.948 184.153 123.698C183.999 123.448 183.753 121.649 183.609 119.701C182.959 110.96 181.874 108.258 177.055 103.375C172.275 98.5319 165.078 94.458 157.874 92.5167C156.136 92.0485 154.116 91.3402 153.384 90.9427C152.652 90.5452 150.504 89.6377 148.61 88.926C146.716 88.2143 144.115 87.1031 142.831 86.4565L140.497 85.281L141.773 86.6595C143.528 88.5537 142.488 88.358 140.234 86.3696C139.004 85.2848 138.741 84.8551 139.444 85.078C140.353 85.3665 140.325 85.2664 139.236 84.3456L137.975 83.2791L137.037 86.0456C136.375 87.9966 136.26 89.0061 136.646 89.4705C136.947 89.8326 137.366 90.0225 137.577 89.8924C137.788 89.7623 138.768 90.5046 139.755 91.5419L141.55 93.428L139.263 92.1785C138.005 91.4912 136.624 90.411 136.195 89.778C135.761 89.1372 135.085 88.7536 134.67 88.9124C133.956 89.186 135.737 91.6298 140.318 96.6627C142.023 98.5354 144.348 102.556 143.382 101.96C142.879 101.649 142.78 101.772 143.024 102.406C143.743 104.276 142.476 103.097 139.58 99.2012C135.575 93.8141 132.497 90.3289 132.097 90.7282C131.919 90.9062 132.801 92.3251 134.057 93.8812C135.313 95.4373 137.369 98.1887 138.627 99.9954C139.884 101.802 141.155 103.28 141.451 103.28C141.747 103.28 141.83 103.439 141.636 103.633C141.442 103.826 141.6 104.477 141.987 105.078C144.104 108.363 146.571 113.267 146.107 113.267C145.812 113.267 145.403 112.734 145.198 112.084C144.994 111.434 144.03 109.655 143.057 108.132C142.083 106.609 141.287 105.249 141.287 105.111C141.287 104.797 138.186 100.422 134.775 95.9221C131.552 91.6711 131.282 91.3689 131.282 92.0216C131.282 92.3046 132.657 94.658 134.337 97.2514C136.017 99.8447 138.081 103.267 138.923 104.857C139.765 106.447 140.847 108.339 141.326 109.062C142.697 111.128 147.081 119.747 147.066 120.347C147.058 120.645 146.502 119.824 145.829 118.523C143.149 113.338 136.842 102.327 134.98 99.5825C133.895 97.9821 132.418 95.5689 131.699 94.2195C130.745 92.4323 130.233 91.9237 129.81 92.3458C129.387 92.7679 129.44 93.332 130.006 94.4238C130.9 96.1488 130.298 96.4705 129.266 94.82C128.886 94.2137 128.45 93.8435 128.296 93.9973C127.959 94.3338 130.831 100.043 134.951 107.223C138.61 113.6 143.92 124.043 143.92 124.863C143.92 125.19 142.074 121.828 139.818 117.392C135.609 109.116 129.87 99.0764 129.348 99.0764C129.187 99.0764 129.4 99.6085 129.822 100.259C130.244 100.909 130.764 102.149 130.977 103.013C131.191 103.877 132.65 107.261 134.22 110.533C137.157 116.654 138.007 119.035 135.758 114.844C134.336 112.193 134.205 112.194 134.973 114.848C135.265 115.858 135.634 118.458 135.793 120.626C136.343 128.131 138.583 135.853 141.624 140.726C143.228 143.296 148.093 148.617 149.926 149.806C151.921 151.101 160.456 153.824 164.456 154.443C167.254 154.875 170.256 154.764 171.54 154.18L171.54 154.178ZM163.762 143.201C162.672 141.118 161.884 139.31 162.012 139.183C162.327 138.868 166.08 145.982 165.894 146.542C165.812 146.787 164.853 145.284 163.763 143.201H163.762ZM158.137 138.659C155.979 134.547 155.675 133.811 156.443 134.553C157.381 135.459 160.889 142.174 160.423 142.172C160.18 142.171 159.151 140.59 158.137 138.659H158.137ZM154.261 135.843C152.857 133.219 151.799 130.981 151.91 130.87C152.022 130.758 152.689 131.778 153.393 133.136C154.097 134.493 155.23 136.508 155.91 137.614C156.59 138.719 157.072 139.846 156.981 140.118C156.89 140.391 155.666 138.467 154.261 135.843L154.261 135.843ZM148.763 137.456C148.158 136.004 147.778 134.816 147.917 134.816C148.268 134.816 150.311 139.649 150.064 139.896C149.953 140.006 149.368 138.909 148.763 137.456V137.456ZM178.967 135.802C177.56 133.38 176.03 130.817 175.567 130.106C175.104 129.394 174.984 128.972 175.302 129.168C176.264 129.759 181.933 138.985 181.722 139.616C181.614 139.94 180.374 138.223 178.967 135.801L178.967 135.802ZM159.974 135.738C158.061 132.199 155.411 127.884 152.035 122.811C147.993 116.739 146.508 114.318 146.827 114.318C147.663 114.318 162.223 137.746 161.706 138.261C161.574 138.393 160.795 137.258 159.974 135.738L159.974 135.738ZM150.607 136.047C149.209 133.307 149.133 131.886 150.522 134.473C151.275 135.874 151.773 137.138 151.63 137.281C151.486 137.424 151.026 136.869 150.607 136.047H150.607ZM182.656 134.97C182.371 134.221 182.431 134.16 182.951 134.676C183.311 135.032 183.473 135.456 183.311 135.618C183.149 135.78 182.854 135.488 182.656 134.97ZM180.308 131.222C179.409 129.824 178.673 128.47 178.673 128.214C178.673 127.712 179.385 128.698 181.255 131.794C182.991 134.669 182.227 134.207 180.308 131.222V131.222ZM153.134 129.56C152.685 128.693 152.436 127.983 152.58 127.983C152.725 127.983 153.211 128.693 153.661 129.56C154.11 130.427 154.359 131.137 154.214 131.137C154.069 131.137 153.583 130.427 153.134 129.56ZM138.695 128.815C138.672 128.261 138.796 127.951 138.971 128.125C139.146 128.3 139.165 128.753 139.013 129.133C138.845 129.552 138.72 129.427 138.695 128.815V128.815ZM137.901 126.106C137.707 125.336 137.65 124.604 137.774 124.48C137.898 124.356 138.158 124.885 138.352 125.655C138.546 126.426 138.603 127.157 138.479 127.281C138.354 127.405 138.094 126.876 137.901 126.106ZM178.674 126.406C178.364 125.828 178.229 125.355 178.374 125.355C178.518 125.355 178.891 125.828 179.201 126.406C179.511 126.984 179.646 127.457 179.501 127.457C179.356 127.457 178.984 126.984 178.674 126.406ZM180.254 125.881C179.944 125.302 179.809 124.829 179.953 124.829C180.098 124.829 180.47 125.302 180.78 125.881C181.09 126.459 181.225 126.932 181.081 126.932C180.936 126.932 180.564 126.459 180.254 125.881ZM143.905 119.846C142.114 116.185 140.318 113.064 139.915 112.909C139.511 112.755 139.181 112.297 139.181 111.892C139.181 111.22 136.241 105.905 132.274 99.4047C131.414 97.9959 130.811 96.7436 130.932 96.6219C131.054 96.5002 132.874 99.3084 134.976 102.863C137.079 106.417 139.432 110.389 140.207 111.69C142.692 115.863 147.704 125.959 147.428 126.235C147.281 126.381 145.696 123.506 143.905 119.846L143.905 119.846ZM173.869 124.961C173.214 124.127 173.232 124.109 174.067 124.762C174.945 125.449 175.224 125.881 174.79 125.881C174.681 125.881 174.266 125.467 173.869 124.961L173.869 124.961ZM175.785 123.976C175.287 123.218 175.14 122.758 175.458 122.954C176.066 123.329 177.292 125.355 176.911 125.355C176.789 125.355 176.283 124.735 175.785 123.976H175.785ZM181.242 123.121C180.586 122.182 179.476 120.644 178.774 119.705C178.072 118.766 177.615 117.997 177.76 117.997C178.009 117.997 181.725 122.78 182.557 124.172C183.383 125.553 182.378 124.75 181.242 123.121H181.242ZM170.276 121.727C169.671 120.543 169.275 119.574 169.397 119.574C169.793 119.574 171.88 123.377 171.625 123.633C171.488 123.769 170.881 122.911 170.276 121.727V121.727ZM138.919 122.201C138.721 121.58 138.678 120.953 138.822 120.808C138.967 120.664 139.247 121.054 139.445 121.676C139.643 122.298 139.686 122.925 139.541 123.069C139.396 123.214 139.116 122.823 138.919 122.201ZM137.678 118.654C137.103 117.314 137.116 117.283 137.857 118.229C138.296 118.79 138.655 119.44 138.655 119.674C138.655 120.473 138.298 120.1 137.678 118.654H137.678ZM172.592 106.813L168.935 103.018L172.607 106.434C174.627 108.313 176.384 109.909 176.513 109.982C176.641 110.054 176.634 110.225 176.498 110.361C176.361 110.497 174.604 108.901 172.592 106.813L172.592 106.813ZM174.464 106.697C173.185 105.396 172.257 104.331 172.402 104.331C172.547 104.331 173.712 105.396 174.991 106.697C176.27 107.997 177.198 109.062 177.053 109.062C176.908 109.062 175.743 107.997 174.464 106.697H174.464ZM147.351 106.965C146.521 106.101 146.005 105.231 146.204 105.032C146.559 104.679 147.62 105.783 148.689 107.616C149.464 108.946 149.066 108.752 147.351 106.965ZM149.64 104.2C148.386 102.682 147.233 101.322 147.077 101.178C146.569 100.706 144.946 98.0243 145.168 98.0243C145.286 98.0243 146.753 99.739 148.426 101.835C152.502 106.939 152.517 106.959 152.198 106.959C152.045 106.959 150.893 105.718 149.639 104.2L149.64 104.2ZM139.248 90.1404C138.005 88.984 137.197 88.038 137.453 88.038C137.708 88.038 138.842 88.984 139.973 90.1404C141.104 91.2967 141.912 92.2428 141.768 92.2428C141.624 92.2428 140.49 91.2967 139.248 90.1404ZM141.69 89.6029C138.343 87.0874 137.144 85.9356 137.874 85.9356C138.219 85.9356 145.502 91.8066 145.502 92.0847C145.502 92.4254 145.083 92.1524 141.69 89.6028V89.6029ZM179.269 144.137C178.749 143.622 178.689 143.682 178.974 144.431C179.172 144.949 179.466 145.241 179.629 145.079C179.791 144.917 179.629 144.493 179.269 144.137V144.137ZM175.518 137.97C175.208 137.392 174.836 136.919 174.691 136.919C174.546 136.919 174.681 137.392 174.991 137.97C175.301 138.548 175.673 139.021 175.818 139.021C175.963 139.021 175.828 138.548 175.518 137.97ZM173.938 135.342C173.628 134.764 173.256 134.291 173.111 134.291C172.966 134.291 173.101 134.764 173.411 135.342C173.721 135.92 174.093 136.393 174.238 136.393C174.383 136.393 174.248 135.92 173.938 135.342ZM172.358 132.714C172.048 132.136 171.676 131.663 171.531 131.663C171.386 131.663 171.522 132.136 171.832 132.714C172.142 133.292 172.514 133.765 172.658 133.765C172.803 133.765 172.668 133.292 172.358 132.714ZM41.3384 132.88C40.9583 132.729 40.5041 132.747 40.3291 132.922C40.1541 133.097 40.4651 133.221 41.0202 133.198C41.6336 133.173 41.7584 133.048 41.3384 132.88H41.3384ZM41.2396 131.663C41.2396 131.004 40.6808 131.004 39.6599 131.663C39.0212 132.075 39.0967 132.174 40.0548 132.18C40.7065 132.185 41.2396 131.952 41.2396 131.663H41.2396ZM67.9637 131.826C67.4569 131.694 66.6275 131.694 66.1207 131.826C65.6138 131.958 66.0285 132.066 67.0422 132.066C68.0558 132.066 68.4705 131.958 67.9637 131.826H67.9637ZM74.5131 131.829C74.1329 131.677 73.6788 131.696 73.5038 131.871C73.3288 132.045 73.6398 132.17 74.1949 132.147C74.8084 132.122 74.9332 131.997 74.5131 131.829H74.5131ZM43.4449 131.304C43.0648 131.152 42.6106 131.17 42.4356 131.345C42.2607 131.52 42.5717 131.644 43.1268 131.621C43.7402 131.596 43.865 131.471 43.4449 131.304H43.4449ZM53.0077 131.268C53.1426 131.052 51.9125 130.941 50.2742 131.023C45.1313 131.279 44.5107 131.502 48.7124 131.584C50.9399 131.627 52.8726 131.485 53.0077 131.268L53.0077 131.268ZM58.4854 130.775C57.9785 130.643 57.1492 130.643 56.6423 130.775C56.1355 130.907 56.5502 131.015 57.5639 131.015C58.5775 131.015 58.9922 130.907 58.4854 130.775H58.4854ZM63.9814 130.778C63.6013 130.626 63.1471 130.645 62.9721 130.82C62.7972 130.994 63.1082 131.118 63.6633 131.096C64.2767 131.07 64.4015 130.946 63.9814 130.778H63.9814ZM66.6143 130.778C66.2342 130.626 65.78 130.645 65.605 130.82C65.43 130.994 65.7411 131.118 66.2961 131.096C66.9096 131.07 67.0344 130.946 66.6143 130.778H66.6143ZM53.0879 129.56C52.9089 129.271 52.5395 129.035 52.2669 129.035C51.9944 129.035 51.7714 129.271 51.7714 129.56C51.7714 129.849 52.1409 130.086 52.5924 130.086C53.0439 130.086 53.2669 129.849 53.0879 129.56ZM54.9309 129.56C54.9309 129.271 54.68 129.035 54.3733 129.035C54.0666 129.035 53.9621 129.271 54.1411 129.56C54.3201 129.849 54.571 130.086 54.6987 130.086C54.8264 130.086 54.9309 129.849 54.9309 129.56ZM86.5256 129.035C86.5256 128.746 86.2886 128.509 85.999 128.509C85.7094 128.509 85.4724 128.746 85.4724 129.035C85.4724 129.324 85.7094 129.56 85.999 129.56C86.2886 129.56 86.5256 129.324 86.5256 129.035ZM30.05 128.652C28.964 128.538 27.1868 128.538 26.1008 128.652C25.0149 128.765 25.9034 128.858 28.0755 128.858C30.2476 128.858 31.1362 128.765 30.0502 128.652H30.05ZM84.6571 128.579C83.8941 127.883 80.8135 127.43 80.4822 127.965C80.3212 128.225 80.8452 128.536 81.6466 128.657C84.36 129.067 85.1691 129.046 84.657 128.579H84.6571ZM73.8885 126.945C73.1644 126.707 71.8612 126.505 70.9923 126.496C68.6871 126.473 70.8174 127.233 73.2907 127.315C74.9725 127.371 75.0451 127.326 73.8885 126.945ZM79.7797 127.099C79.3996 126.947 78.9454 126.966 78.7705 127.14C78.5955 127.315 78.9065 127.439 79.4616 127.416C80.075 127.391 80.1998 127.267 79.7798 127.099H79.7797ZM72.9343 125.522C72.5542 125.37 72.1 125.389 71.9251 125.564C71.7501 125.738 72.0611 125.862 72.6162 125.84C73.2297 125.814 73.3544 125.69 72.9344 125.522H72.9343ZM84.1787 124.339C83.7523 123.651 81.7875 123.592 81.7875 124.268C81.7875 124.537 82.3206 124.842 82.9723 124.946C84.413 125.175 84.6292 125.067 84.1787 124.339ZM87.5799 125.154C87.5799 125.043 87.106 124.829 86.5267 124.678C85.9475 124.526 85.4736 124.617 85.4736 124.879C85.4736 125.141 85.9475 125.356 86.5267 125.356C87.106 125.356 87.5799 125.265 87.5799 125.154ZM51.1057 124.466C50.5933 124.332 49.8824 124.341 49.5259 124.485C49.1694 124.629 49.5886 124.738 50.4574 124.727C51.3263 124.717 51.618 124.599 51.1056 124.466H51.1057ZM80.4006 123.519C80.2346 123.087 79.8827 122.867 79.6187 123.03C79.0665 123.37 79.5098 124.304 80.2236 124.304C80.487 124.304 80.5667 123.951 80.4006 123.519H80.4006ZM77.8394 123.253C77.6605 122.964 77.1586 122.728 76.7241 122.728C76.2897 122.728 76.0807 122.964 76.2597 123.253C76.4387 123.542 76.9406 123.779 77.375 123.779C77.8095 123.779 78.0184 123.542 77.8394 123.253ZM74.68 122.728C74.501 122.438 73.9538 122.219 73.4641 122.239C72.7382 122.269 72.7683 122.359 73.6268 122.728C75.0359 123.332 75.0542 123.332 74.68 122.728H74.68ZM71.7838 122.202C71.7838 121.913 71.2506 121.693 70.599 121.713C69.4685 121.749 69.4625 121.771 70.4674 122.202C71.0466 122.45 71.5798 122.67 71.6522 122.691C71.7246 122.711 71.7838 122.491 71.7838 122.202ZM83.3685 122.526C83.3685 122.415 82.7833 122.213 82.068 122.076C81.3527 121.94 80.8928 122.031 81.0459 122.278C81.3156 122.713 83.3685 122.933 83.3685 122.526V122.526ZM68.0979 121.738C68.0979 121.482 67.5647 121.139 66.9131 120.975C65.7688 120.688 65.7632 120.703 66.7504 121.44C67.9427 122.329 68.0979 122.363 68.0979 121.738ZM65.465 121.207C65.465 120.723 64.2184 120.1 63.2511 120.1C62.9193 120.1 62.9617 120.411 63.3587 120.888C64.0741 121.748 65.465 121.959 65.465 121.207L65.465 121.207ZM84.6852 121.151C84.5062 120.862 84.0043 120.625 83.5698 120.625C83.1354 120.625 82.9264 120.862 83.1054 121.151C83.2844 121.44 83.7863 121.676 84.2207 121.676C84.6552 121.676 84.8641 121.44 84.6852 121.151ZM81.361 120.792C80.9809 120.64 80.5267 120.659 80.3517 120.833C80.1768 121.008 80.4878 121.132 81.0429 121.109C81.6563 121.084 81.7811 120.96 81.361 120.792H81.361ZM78.1027 120.1C77.3787 119.868 76.4308 119.659 75.9964 119.634C75.2943 119.595 75.2943 119.647 75.9964 120.1C76.4308 120.38 77.3787 120.589 78.1027 120.565L79.4192 120.52L78.1027 120.1ZM66.9097 119.488C66.1114 119.197 65.5923 118.742 65.756 118.478C66.1131 117.901 64.6697 117.859 62.2395 118.374C60.5172 118.74 60.5599 118.771 63.6218 119.368C67.5473 120.134 68.8103 120.18 66.9097 119.488H66.9097ZM71.5206 119.048C70.6517 118.828 69.3484 118.647 68.6244 118.647C67.4501 118.647 67.4786 118.69 68.8877 119.048C69.7565 119.269 71.0598 119.45 71.7839 119.45C72.9581 119.45 72.9297 119.406 71.5206 119.048H71.5206ZM59.2716 118.151C58.6166 118.025 57.6688 118.03 57.1653 118.162C56.6618 118.293 57.1978 118.396 58.3563 118.39C59.5148 118.384 59.9266 118.277 59.2716 118.151ZM187.103 117.472C187.103 117.183 186.852 116.946 186.546 116.946C186.239 116.946 186.134 117.183 186.313 117.472C186.492 117.761 186.743 117.997 186.871 117.997C186.999 117.997 187.103 117.761 187.103 117.472ZM190.142 116.847C190.028 116.504 189.619 116.119 189.235 115.991C188.773 115.837 188.68 115.99 188.959 116.442C189.266 116.936 189.133 117.029 188.479 116.779C187.942 116.573 187.706 116.643 187.897 116.952C188.356 117.693 190.393 117.598 190.142 116.847L190.142 116.847ZM193.078 117.069C192.743 116.857 192.489 116.447 192.514 116.158C192.538 115.869 192.16 115.556 191.673 115.462C190.511 115.239 190.537 116.221 191.711 116.904C192.756 117.511 194.013 117.663 193.078 117.069V117.069ZM212.116 109.628C213.274 108.996 214.815 108.017 215.538 107.451C216.983 106.322 216.617 106.427 212.379 108.354C211.076 108.947 208.469 109.951 206.587 110.586C204.704 111.22 202.788 111.943 202.328 112.192C201.868 112.44 199.558 113.165 197.194 113.801C193.196 114.878 192.458 115.282 193.177 116.001C193.575 116.398 209.574 111.014 212.116 109.628L212.116 109.628ZM187.367 115.369C187.188 115.08 186.937 114.844 186.809 114.844C186.681 114.844 186.577 115.08 186.577 115.369C186.577 115.658 186.828 115.895 187.134 115.895C187.441 115.895 187.546 115.658 187.367 115.369ZM190.888 114.485C190.508 114.333 190.054 114.352 189.879 114.526C189.704 114.701 190.015 114.825 190.57 114.802C191.183 114.777 191.308 114.653 190.888 114.485H190.888ZM188.156 113.793C188.156 113.503 187.92 113.267 187.63 113.267C187.34 113.267 187.103 113.503 187.103 113.793C187.103 114.082 187.34 114.318 187.63 114.318C187.92 114.318 188.156 114.082 188.156 113.793ZM195.693 113.488C200.58 112.004 206.288 110.06 207.903 109.331C208.772 108.939 210.754 108.12 212.307 107.51C215.332 106.324 220.003 103.356 219.552 102.907C219.402 102.757 218.497 103.118 217.541 103.708C213.597 106.14 209.135 108.055 208.143 107.741C207.133 107.421 204.767 108.014 201.504 109.406C200.592 109.795 199.463 110.113 198.996 110.113C198.529 110.113 197.735 110.333 197.232 110.601C196.73 110.869 195.87 111.229 195.321 111.401C194.773 111.574 194.458 111.849 194.622 112.012C194.786 112.175 197.807 111.328 201.337 110.129C204.866 108.93 207.854 108.049 207.976 108.171C208.234 108.429 203.445 110.549 202.02 110.808C200.415 111.1 196.415 112.307 194.739 113.006C193.87 113.368 192.803 113.793 192.369 113.95C190.484 114.63 193.154 114.259 195.693 113.488L195.693 113.488ZM189.996 113.273C190.181 112.975 189.969 112.887 189.501 113.066C188.588 113.416 188.421 113.793 189.179 113.793C189.451 113.793 189.819 113.559 189.996 113.273V113.273ZM186.577 112.741C187.258 112.302 187.244 112.231 186.476 112.224C185.987 112.219 185.439 112.452 185.26 112.741C184.849 113.407 185.546 113.407 186.577 112.741H186.577ZM193.159 112.741C194.099 112.338 194.06 112.286 192.795 112.253C192.016 112.232 191.232 112.452 191.053 112.741C190.664 113.369 191.696 113.369 193.159 112.741H193.159ZM190.362 111.857C189.981 111.705 189.527 111.724 189.352 111.898C189.177 112.073 189.488 112.197 190.043 112.174C190.657 112.149 190.782 112.025 190.362 111.857H190.362ZM84.6822 109.768C87.5783 109.325 90.6283 108.634 91.4601 108.232C92.292 107.831 93.1804 107.631 93.4348 107.788C93.6892 107.945 93.8974 107.823 93.8974 107.516C93.8974 107.21 93.4828 106.941 92.9759 106.917C92.4175 106.891 92.7287 106.58 93.7658 106.127C94.7071 105.716 95.4772 105.136 95.4772 104.837C95.4772 104.465 95.158 104.465 94.4586 104.839C93.2132 105.504 92.8443 105.523 92.8443 104.92C92.8443 104.665 93.8775 104.197 95.1403 103.88C96.4031 103.562 97.7656 102.898 98.1681 102.405C98.816 101.61 98.7886 101.549 97.9295 101.87C97.3958 102.07 96.3294 102.365 95.5599 102.524L94.1607 102.815L95.4772 102.015C96.2013 101.575 97.3596 101.207 98.0512 101.197C98.7679 101.186 100.292 100.274 101.594 99.0758C102.851 97.9195 103.65 96.9734 103.37 96.9734C103.09 96.9734 101.072 97.4632 98.8863 98.0619C96.7002 98.6605 94.6241 99.0428 94.2729 98.9114C93.4433 98.6011 94.002 98.4186 100.216 96.9699C105.395 95.7626 107.849 94.6653 107.311 93.7967C107.14 93.5203 107.409 93.2942 107.909 93.2942C108.408 93.2942 108.672 93.1494 108.495 92.9723C108.317 92.7953 106.363 93.0522 104.152 93.5432C97.3489 95.0539 99.3112 94.136 106.818 92.296C110.717 91.3403 113.907 90.3205 113.907 90.0297C113.907 89.7143 113.323 89.6493 112.459 89.8685C110.841 90.2792 99.6974 92.2341 98.9439 92.2395C97.2334 92.2519 99.8522 91.5518 105.005 90.619C108.309 90.0211 111.236 89.3141 111.512 89.0479C112.251 88.3328 110.675 88.4515 104.43 89.5811C101.39 90.1311 98.8187 90.4975 98.7163 90.3954C98.4444 90.124 102.043 89.2341 106.272 88.5269C110.692 87.7877 112.408 87.0252 109.694 87.006C108.681 86.9988 107.022 87.2055 106.009 87.4653C103.374 88.1407 99.2787 88.5731 100.216 88.077C100.651 87.8471 102.888 87.365 105.189 87.0056C110.235 86.2173 112.871 85.2516 108.905 85.6441C100.664 86.4597 100.429 86.4476 105.219 85.4546C107.825 84.9141 109.292 84.4465 108.479 84.4155C106.84 84.3529 107.022 83.3079 108.672 83.3079C109.235 83.3079 109.695 83.1136 109.695 82.8762C109.695 82.6388 108.214 82.6161 106.404 82.8258C104.593 83.0355 101.699 83.3655 99.9713 83.5591C98.2438 83.7526 96.5849 84.0465 96.2854 84.2122C95.9858 84.3778 96.0086 84.2226 96.3366 83.8673C96.886 83.2721 98.5724 82.9509 107.325 81.7741L110.485 81.3493L106.009 81.1827L101.532 81.0161L105.482 80.7166C110.485 80.3371 109.278 79.8008 103.126 79.67C96.6061 79.5313 96.7281 79.1031 103.288 79.1031C109.272 79.1031 110.907 78.0915 105.087 77.9897C103.132 77.9555 100.821 77.7353 99.9525 77.5004C99.0345 77.2522 100.633 77.1965 103.77 77.3675C107.602 77.5764 109.168 77.4896 109.168 77.0684C109.168 76.7421 108.397 76.4606 107.456 76.4428C106.515 76.425 104.086 76.0796 102.059 75.6751L98.3728 74.9397L101.532 75.2028C103.27 75.3475 105.699 75.6016 106.93 75.7674C108.297 75.9516 109.168 75.8603 109.168 75.5329C109.168 75.2381 107.924 74.8266 106.403 74.6183C102.67 74.107 100.693 73.2385 104.165 73.6349C105.613 73.8002 107.213 74.0498 107.719 74.1895C108.226 74.3292 108.641 74.1911 108.641 73.8825C108.641 73.574 108.39 73.3215 108.083 73.3215C107.777 73.3215 107.65 73.1212 107.801 72.8764C108.211 72.2145 105.273 69.6011 104.013 69.5062C103.412 69.4611 103.019 69.2662 103.139 69.0731C103.599 68.3298 94.988 63.9427 90.4738 62.6206C85.7393 61.234 81.5737 60.8245 81.0359 61.6927C80.8793 61.9457 80.135 62.1526 79.3818 62.1526C77.8863 62.1526 75.7973 63.0584 74.1497 64.4213C73.5705 64.9004 71.4378 66.1852 69.4104 67.2764C67.383 68.3677 64.8949 69.901 63.8813 70.6841C59.5167 74.0552 57.549 74.8211 52.8533 74.9746C47.6889 75.1437 43.0344 76.9572 41.4089 79.4336C40.3078 81.1109 40.1623 85.3606 41.1279 87.6441C41.6897 88.9729 41.9737 89.0895 44.6482 89.0895C46.2482 89.0895 47.5574 89.2831 47.5574 89.5196C47.5574 89.7561 46.6226 89.8759 45.4801 89.7857C44.3376 89.6955 43.2573 89.8567 43.0794 90.144C42.8847 90.4584 43.6591 90.672 45.025 90.6807C46.273 90.6886 50.6116 90.8063 54.6661 90.9422C59.4115 91.1013 61.663 91.0158 60.985 90.702C60.4057 90.4339 58.1546 90.1744 55.9824 90.1253C53.8102 90.0761 51.4405 89.8636 50.7166 89.653C49.9926 89.4424 53.4285 89.3747 58.3521 89.5025C66.3834 89.7111 79.774 89.1431 88.3671 88.2292C90.1049 88.0444 91.3639 88.0686 91.1649 88.283C90.966 88.4974 88.004 88.9959 84.5828 89.3908L78.3622 90.1087L84.9443 89.9256C89.0547 89.8113 90.8343 89.9023 89.6836 90.1679C85.9267 91.035 67.9814 91.8243 56.1598 91.6424C45.3816 91.4766 44.0309 91.5465 44.5613 92.2431C50.449 99.9787 54.6255 103.822 60.8108 107.196C68.1201 111.183 72.4193 111.646 84.6826 109.768L84.6822 109.768ZM68.0949 101.195C68.0949 100.915 68.4503 100.822 68.8848 100.988C69.3192 101.155 69.6747 101.384 69.6747 101.497C69.6747 101.611 69.3192 101.704 68.8848 101.704C68.4503 101.704 68.0949 101.475 68.0949 101.195ZM94.9506 100.427C94.9506 100.047 100.838 98.4696 101.138 98.7697C101.293 98.9246 101.09 99.1417 100.687 99.2522C100.283 99.3627 99.1068 99.7231 98.0726 100.053C96.1212 100.675 94.9505 100.816 94.9505 100.427H94.9506ZM64.9082 99.1597C63.7175 98.1973 63.717 98.1906 64.8076 97.9059C65.4618 97.7351 66.7177 98.1188 67.921 98.8571C69.0303 99.5376 69.6892 100.102 69.385 100.111C69.0809 100.12 68.607 99.9173 68.3319 99.6607C68.0567 99.4041 67.2392 99.0248 66.5152 98.8179C65.2364 98.4525 65.2288 98.4653 66.2519 99.2678C66.8311 99.7221 67.0351 100.101 66.7051 100.11C66.3752 100.12 65.5666 99.6918 64.9081 99.1597H64.9082ZM71.1227 98.1656C72.3536 98.0549 74.3679 98.0549 75.5988 98.1656C76.8297 98.2762 75.8226 98.3668 73.3608 98.3668C70.899 98.3668 69.8919 98.2762 71.1228 98.1656H71.1227ZM51.7709 95.9179C51.2317 95.5671 51.8165 95.5097 53.6139 95.7372C55.062 95.9205 56.3456 96.1555 56.4663 96.2593C56.9894 96.7093 52.4837 96.3818 51.7709 95.9179L51.7709 95.9179ZM99.4594 95.9641C100.365 95.0995 107.864 93.1955 107.011 94.0467C106.886 94.1714 105.024 94.76 102.874 95.3547C100.724 95.9494 99.1874 96.2237 99.4594 95.9642V95.9641ZM72.693 95.5777C73.0495 95.4337 73.7603 95.4249 74.2727 95.5582C74.7851 95.6915 74.4934 95.8092 73.6245 95.82C72.7557 95.8307 72.3365 95.7216 72.693 95.5777H72.693ZM61.1083 95.0521C61.4648 94.9081 62.1756 94.8993 62.688 95.0326C63.2004 95.1659 62.9087 95.2837 62.0398 95.2944C61.171 95.3051 60.7518 95.196 61.1083 95.0521H61.1083ZM55.1942 92.7688C55.3776 92.4726 57.6318 92.2696 60.3596 92.3037C64.3586 92.3536 64.8334 92.4397 63.093 92.799C60.0468 93.4279 54.7988 93.4079 55.1943 92.7688H55.1942ZM78.3412 92.7325C78.1745 92.4634 78.9211 92.2433 80.0001 92.2433C82.1971 92.2433 82.2299 92.5727 80.0717 92.9633C79.2865 93.1055 78.5078 93.0016 78.3411 92.7325L78.3412 92.7325ZM72.4397 92.4065C72.9465 92.2743 73.7758 92.2743 74.2827 92.4065C74.7895 92.5387 74.3748 92.6469 73.3612 92.6469C72.3475 92.6469 71.9328 92.5387 72.4397 92.4065H72.4397ZM89.0269 91.8723C89.6785 91.747 90.7449 91.747 91.3965 91.8723C92.0481 91.9976 91.515 92.1001 90.2117 92.1001C88.9084 92.1001 88.3753 91.9976 89.0269 91.8723ZM93.6346 89.0897C94.5034 88.869 95.6882 88.6641 96.2675 88.6343C97.134 88.5898 97.1807 88.6704 96.5308 89.0897C96.0963 89.3699 94.9115 89.5748 93.8979 89.545L92.0548 89.4909L93.6346 89.0896V89.0897ZM94.6878 87.5129C94.8668 87.2238 95.7693 87.0108 96.6935 87.0397C98.2982 87.0897 98.3146 87.111 97.0574 87.5129C95.1665 88.1173 94.3135 88.1173 94.6878 87.5129ZM71.2551 86.4772C71.6896 86.1884 72.8546 85.9485 73.8441 85.9441C76.2049 85.9335 75.7844 86.2313 72.8349 86.6588C71.179 86.8987 70.7032 86.844 71.2551 86.4772V86.4772ZM80.7334 85.431C82.0239 84.9984 86.9136 84.6981 86.4818 85.078C86.3611 85.1842 84.7221 85.4064 82.8395 85.5718C80.6931 85.7603 79.9077 85.7078 80.7332 85.4311L80.7334 85.431ZM88.7542 84.5093C89.5454 84.3894 90.9672 84.387 91.9136 84.504C92.8601 84.6209 92.2127 84.7191 90.475 84.722C88.7373 84.725 87.9629 84.6293 88.7542 84.5093ZM87.7214 82.9905C87.8964 82.8159 88.3506 82.7972 88.7307 82.949C89.1507 83.1168 89.026 83.2414 88.4125 83.2666C87.8574 83.2894 87.5464 83.1652 87.7214 82.9905H87.7214ZM90.2556 82.5856C90.3762 82.4773 92.9631 82.2609 96.0039 82.1046C99.8128 81.9089 100.714 81.9558 98.9001 82.2555C96.2129 82.6994 89.8581 82.9421 90.2556 82.5856V82.5856ZM104.956 72.2752C104.232 72.0342 102.96 71.6866 102.129 71.5027C101.299 71.3188 100.731 71.0567 100.868 70.9202C101.248 70.5402 106.486 71.7648 106.825 72.3132C107.177 72.8814 106.752 72.8727 104.956 72.2752V72.2752ZM213.438 105.32C214.618 104.706 215.471 104.092 215.334 103.954C215.196 103.817 214.061 104.317 212.81 105.066C210.062 106.709 210.459 106.87 213.438 105.32L213.438 105.32ZM192.951 101.398C207.257 96.288 213.226 90.4276 212.514 82.1905C212.355 80.347 212.591 77.909 213.141 75.7216L214.023 72.2114L212.708 69.9726C211.108 67.2471 208.127 64.59 205.18 63.2624C203.394 62.4582 201.768 62.2792 196.491 62.3058C188.788 62.3446 185.813 61.832 181.574 59.7357C176.219 57.0877 174.099 56.5908 169.989 57.0206C167.962 57.2326 166.777 57.4563 167.356 57.5177C168.41 57.6292 168.41 57.6292 167.356 58.081C166.777 58.3294 165.829 58.5327 165.25 58.5327C164.197 58.5327 164.197 58.5327 165.25 58.081C166.303 57.6293 166.303 57.6293 165.25 57.6064C164.671 57.5939 163.367 58.2805 162.354 59.1322C160.254 60.8968 160.768 61.0508 164.987 59.9206C167.816 59.1625 170.144 58.8904 169.659 59.3745C169.525 59.5077 167.057 60.1244 164.174 60.7449C158.828 61.8952 156.282 62.9857 156.839 63.8856C157.01 64.162 156.722 64.4078 156.198 64.4319C154.043 64.531 153.077 64.7525 152.081 65.3756C151.195 65.9302 151.494 65.9861 154.016 65.7363C155.656 65.5737 157.433 65.3043 157.965 65.1375C158.825 64.8678 158.835 64.8965 158.058 65.3985C157.578 65.7088 154.972 66.1921 152.266 66.4725C144.779 67.2483 139.184 68.1513 139.184 68.5839C139.184 68.7978 139.717 68.9028 140.369 68.8173C141.021 68.7318 143.686 68.3913 146.293 68.0604C148.9 67.7296 151.506 67.348 152.085 67.2124C152.904 67.0209 152.962 67.0742 152.349 67.4517C151.914 67.7188 148.905 68.3559 145.662 68.8675C142.418 69.3791 139.66 70.0705 139.531 70.4041C139.358 70.8555 140.597 70.8377 144.375 70.3346C147.168 69.9627 149.901 69.5502 150.45 69.4179C150.998 69.2856 151.235 69.3672 150.976 69.5993C150.584 69.9507 145.921 70.8762 141.553 71.4693C139.512 71.7466 139.465 71.8887 141.29 72.2721C142.948 72.6204 142.988 72.6663 141.685 72.7285C140.889 72.7666 140.237 73.0014 140.237 73.2504C140.237 73.4994 140.889 73.6047 141.685 73.4844L143.133 73.2656L141.817 74.0642C140.963 74.5824 140.778 74.8839 141.29 74.923C141.835 74.9644 141.876 75.0654 141.422 75.2482C141.06 75.394 140.764 76.1939 140.764 77.0258C140.764 77.9062 140.281 78.9875 139.608 79.6129C138.65 80.5035 138.573 80.7995 139.159 81.3416C139.722 81.8635 139.79 81.8629 139.493 81.3387C139.248 80.9057 139.491 80.6817 140.206 80.6817C140.802 80.6817 141.29 80.8753 141.29 81.112C141.29 81.3487 143.557 81.9434 146.329 82.4335C157.24 84.3633 180.292 90.2832 179.596 90.9773C179.485 91.0879 177.87 90.7122 176.008 90.1423C169.523 88.1582 149.527 83.5719 142.631 82.4875C139.234 81.953 141.26 83.6505 144.884 84.3741C151.151 85.6259 161.751 88.1154 166.301 89.4042C173.615 91.476 182.456 94.4282 182.178 94.7057C182.041 94.843 180.19 94.329 178.064 93.5636C175.939 92.7982 172.897 91.84 171.304 91.4344C169.711 91.0287 166.275 90.1292 163.668 89.4355C156.596 87.5535 146.47 85.3213 146.205 85.586C145.906 85.8843 154.136 88.8507 156.559 89.3182C157.573 89.5138 159.943 90.1198 161.825 90.6648C163.708 91.2099 166.907 92.0668 168.934 92.5692C172.945 93.563 187.223 98.4818 186.223 98.5253C185.884 98.5401 181.637 97.2474 176.783 95.6527C167.649 92.6515 160.546 91.0078 166.565 93.2884C168.158 93.8919 171.12 94.9498 173.147 95.6393C177.463 97.107 181.813 98.9873 181.017 99.0405C180.711 99.0609 178.404 98.2498 175.89 97.238C170.571 95.0973 169.116 94.8968 172.078 96.7127C173.732 97.7268 181.429 100.672 185.992 102.037C186.396 102.157 186.626 102.356 186.504 102.477C186.19 102.791 183.123 101.985 179.737 100.7C176.195 99.3553 176.182 99.3551 177.37 100.665C179.935 103.494 186.249 103.792 192.95 101.398L192.951 101.398ZM185.076 100.59C183.237 100.008 181.824 99.4405 181.937 99.3278C182.198 99.0672 187.996 100.845 188.489 101.337C188.973 101.82 188.962 101.818 185.075 100.59H185.076ZM175.66 87.1967C175.835 87.0221 176.29 87.0034 176.67 87.1553C177.09 87.323 176.965 87.4476 176.352 87.4728C175.797 87.4956 175.485 87.3714 175.66 87.1967H175.66ZM173.554 86.6711C173.729 86.4965 174.183 86.4778 174.563 86.6296C174.983 86.7974 174.859 86.922 174.245 86.9472C173.69 86.97 173.379 86.8458 173.554 86.6711H173.554ZM171.448 86.1455C171.623 85.9709 172.077 85.9522 172.457 86.104C172.877 86.2718 172.752 86.3964 172.139 86.4216C171.584 86.4444 171.273 86.3202 171.448 86.1455H171.448ZM166.829 85.4119C165.776 84.9602 165.776 84.9602 166.829 84.9756C167.408 84.9841 168.475 85.1805 169.199 85.4119L170.515 85.8327L169.199 85.8482C168.475 85.8567 167.408 85.6603 166.829 85.4119V85.4119ZM178.293 85.62C178.468 85.4453 178.922 85.4266 179.302 85.5785C179.723 85.7462 179.598 85.8708 178.984 85.896C178.429 85.9188 178.118 85.7946 178.293 85.62H178.293ZM176.187 85.0943C176.362 84.9197 176.816 84.901 177.196 85.0529C177.616 85.2206 177.491 85.3452 176.878 85.3704C176.323 85.3932 176.012 85.269 176.187 85.0943H176.187ZM201.729 70.3098C202.967 70.1988 204.863 70.2003 205.942 70.3133C207.02 70.4262 206.007 70.5171 203.69 70.5152C201.373 70.5133 200.49 70.4208 201.729 70.3098H201.729ZM198.809 68.2174C199.601 68.0975 201.022 68.0951 201.969 68.2121C202.915 68.329 202.268 68.4272 200.53 68.4301C198.792 68.4331 198.018 68.3373 198.809 68.2174ZM204.348 67.7193C204.71 67.5735 205.302 67.5735 205.664 67.7193C206.026 67.8651 205.73 67.9844 205.006 67.9844C204.282 67.9844 203.986 67.8651 204.348 67.7193H204.348ZM190.404 66.6986C190.579 66.524 191.033 66.5053 191.413 66.6571C191.834 66.8249 191.709 66.9494 191.095 66.9747C190.54 66.9975 190.229 66.8733 190.404 66.6986H190.404ZM194.087 66.639C194.887 66.5182 196.072 66.5214 196.72 66.6462C197.367 66.7709 196.712 66.8698 195.264 66.8658C193.816 66.8619 193.286 66.7598 194.087 66.639H194.087ZM198.204 66.3018C198.325 66.198 199.609 65.9764 201.057 65.8094C202.751 65.614 203.314 65.6681 202.636 65.9612C201.63 66.3963 197.748 66.6947 198.204 66.3018V66.3018ZM190.401 65.5878C191.201 65.467 192.386 65.4703 193.034 65.595C193.681 65.7198 193.026 65.8186 191.578 65.8147C190.13 65.8107 189.6 65.7086 190.401 65.5878H190.401ZM194.869 65.0913C195.231 64.9455 195.824 64.9455 196.186 65.0913C196.548 65.2371 196.252 65.3564 195.528 65.3564C194.804 65.3564 194.507 65.2371 194.869 65.0913H194.869ZM186.188 64.5366C186.988 64.4158 188.173 64.4191 188.821 64.5438C189.468 64.6686 188.814 64.7674 187.365 64.7635C185.917 64.7595 185.387 64.6574 186.188 64.5366H186.188ZM157.614 63.8623C157.614 63.652 158.68 63.334 159.983 63.1558C161.286 62.9775 163.004 62.7034 163.8 62.5466C165.08 62.2948 165.115 62.3206 164.101 62.7689C162.447 63.4995 157.614 64.3141 157.614 63.8623L157.614 63.8623ZM142.87 101.255C142.87 101.008 141.073 98.7018 138.878 96.1308C134.553 91.0661 132.351 88.7672 134.652 91.7192C135.441 92.731 137.505 95.3919 139.238 97.6321C142.326 101.622 142.87 102.165 142.87 101.255H142.87ZM126.894 92.6392C126.748 92.2779 126.629 92.5735 126.629 93.2962C126.629 94.0189 126.748 94.3145 126.894 93.9532C127.04 93.5918 127.04 93.0005 126.894 92.6392V92.6392ZM110.32 92.4116C109.94 92.2597 109.486 92.2784 109.311 92.4531C109.136 92.6277 109.447 92.7519 110.002 92.7291C110.615 92.7039 110.74 92.5794 110.32 92.4116H110.32ZM121.263 90.4054C121.263 90.1164 121.034 90.2346 120.753 90.6682C120.472 91.1019 120.242 91.6932 120.242 91.9822C120.242 92.2713 120.472 92.153 120.753 91.7194C121.034 91.2858 121.263 90.6945 121.263 90.4054ZM122.859 90.4054C122.859 88.5996 123.9 88.203 123.975 89.9802L124.037 91.4566L124.418 89.8798C124.791 88.3407 124.922 88.423 125.672 90.6682C125.817 91.1019 125.954 90.6879 125.977 89.7485C126.005 88.6004 126.277 88.0403 126.807 88.0403C127.241 88.0403 127.954 88.809 128.392 89.7485C129.162 91.3992 129.162 90.3019 128.392 88.4344C128.165 87.8843 128.247 87.5147 128.595 87.5147C128.916 87.5147 129.182 87.9286 129.186 88.4344C129.191 88.9403 129.436 89.709 129.732 90.1426C130.118 90.7082 130.17 90.3524 129.915 88.8841C129.636 87.2818 129.707 86.9284 130.24 87.2571C130.689 87.5343 130.792 87.4695 130.542 87.0662C130.086 86.33 131.162 85.1631 132.765 84.6554C133.407 84.4519 133.797 84.0659 133.631 83.7976C133.188 83.0826 134.118 83.2028 134.94 83.9669C135.329 84.3282 135.094 83.8536 134.417 82.9121C132.928 80.8387 133.493 79.8214 135.675 80.6494C137.659 81.4023 137.42 80.7875 135.365 79.8519L133.654 79.0726L135.497 79.3543C137.062 79.5934 137.155 79.5565 136.115 79.11C134.284 78.3235 135.746 77.067 138.092 77.4107C139.326 77.5915 139.748 77.4898 139.49 77.0734C139.287 76.7455 138.365 76.446 137.441 76.408L135.76 76.3388L137.603 75.9515L139.446 75.5643L137.867 75.4582C136.488 75.3656 136.421 75.2945 137.34 74.9004C138.345 74.4693 138.339 74.4469 137.208 74.4117C136.557 74.3914 136.024 74.1576 136.024 73.8922C136.024 73.6267 135.886 73.0527 135.719 72.6167C135.522 72.1053 135.943 71.5234 136.904 70.9777C138.305 70.182 138.315 70.1519 137.077 70.4727C136.353 70.6603 135.535 71.0237 135.26 71.2803C134.448 72.0375 133.734 71.8126 134.401 71.01C134.738 70.6047 135.606 70.1247 136.33 69.9434C137.054 69.762 137.502 69.3798 137.325 69.0939C137.133 68.7851 136.397 69.0047 135.51 69.6349C133.43 71.1133 132.97 70.9577 134.484 69.2883L135.76 67.881L134.049 69.0613C132.174 70.3547 131.818 70.0604 133.259 68.4082C134.16 67.3757 134.154 67.3697 133.015 68.14C132.374 68.5734 131.348 69.5645 130.735 70.3424C130.122 71.1203 129.423 71.6351 129.182 71.4863C128.941 71.3375 128.231 71.8675 127.605 72.6639C126.979 73.4604 126.617 73.8164 126.801 73.455C127.012 73.0388 126.753 72.798 126.094 72.798C125.521 72.798 124.934 72.5024 124.788 72.141C124.583 71.6352 124.513 71.6324 124.481 72.1289C124.458 72.4836 125.037 73.1652 125.769 73.6436C126.937 74.4074 127.209 74.4204 128.007 73.75C128.506 73.3302 129.809 72.7281 130.902 72.4121C132.65 71.9067 132.872 71.9429 132.745 72.712C132.65 73.2903 132.911 73.5345 133.518 73.4331C134.344 73.2949 134.326 73.4631 133.334 75.1413C132.687 76.235 131.821 77.0028 131.232 77.0028C130.109 77.0028 129.879 77.8246 130.89 78.2315C131.252 78.3773 130.955 78.5189 130.231 78.5462C129.507 78.5734 129.152 78.7695 129.441 78.9818C129.731 79.1942 130.394 80.1332 130.915 81.0686L131.862 82.7691L130.188 83.7851C129.267 84.3439 128.19 84.6768 127.793 84.5249C127.316 84.3421 127.053 84.6676 127.016 85.4875C126.962 86.6803 126.939 86.6726 126.388 85.281C125.735 83.6333 125.366 83.5088 124.439 84.624C123.653 85.5691 121.214 85.6627 120.332 84.7817C119.984 84.4348 119.695 83.5478 119.688 82.8107L119.677 81.4704L118.671 82.7766C118.118 83.4949 117.519 83.9361 117.339 83.7569C117.16 83.5777 117.882 82.7163 118.944 81.8426L120.874 80.2541L117.993 80.4538C115.142 80.6515 115.115 80.6396 115.372 79.2979C115.53 78.4726 115.346 77.7585 114.901 77.4725C114.331 77.1056 114.43 76.9319 115.356 76.6788C116.007 76.5005 116.54 76.1457 116.54 75.8904C116.54 75.6351 117.192 75.3921 117.989 75.3506C118.785 75.309 117.422 75.0979 114.961 74.8813C110.116 74.4552 109.116 74.5844 111.828 75.286C112.87 75.5556 113.605 76.1046 113.689 76.677C113.801 77.435 113.575 77.5591 112.551 77.3027C111.826 77.1209 111.275 77.2141 111.275 77.5185C111.275 77.8131 111.842 78.0541 112.535 78.0541C114.559 78.0541 114.695 79.5288 112.694 79.7784L111.011 79.9883L112.854 80.1248C114.578 80.2524 114.612 80.2885 113.381 80.6821C112.118 81.0858 112.113 81.105 113.249 81.1553C114.298 81.2017 114.49 81.4295 114.415 82.5404C114.405 82.6953 114.763 83.1874 115.21 83.634C115.657 84.0806 115.889 84.6634 115.724 84.9292C115.56 85.195 115.701 85.4124 116.039 85.4124C116.377 85.4124 116.512 85.7784 116.34 86.2281C116.165 86.6823 116.25 86.9057 116.531 86.7323C117.158 86.3455 120.227 87.8794 120.227 88.5795C120.227 88.8612 120.404 89.0636 120.622 89.0294C122.107 88.7952 122.449 89.1691 122.143 90.6945C121.944 91.6887 122.019 92.1759 122.341 91.9775C122.626 91.8015 122.859 91.0942 122.859 90.4056L122.859 90.4054ZM131.021 79.6307C130.842 79.3416 130.933 79.1051 131.222 79.1051C131.512 79.1051 131.895 79.3416 132.074 79.6307C132.253 79.9198 132.163 80.1563 131.873 80.1563C131.584 80.1563 131.2 79.9198 131.021 79.6307ZM68.0957 90.7528C68.0957 90.2231 64.6255 90.2775 64.0865 90.8157C63.8782 91.0237 64.6951 91.1938 65.9018 91.1938C67.1085 91.1938 68.0959 90.9953 68.0959 90.7528L68.0957 90.7528ZM127.39 89.7593C127.215 89.5847 127.091 89.8951 127.114 90.4492C127.139 91.0615 127.264 91.1861 127.432 90.7668C127.584 90.3873 127.565 89.934 127.39 89.7594V89.7593ZM75.0721 90.2833C73.8412 90.1727 71.827 90.1727 70.5961 90.2833C69.3652 90.394 70.3723 90.4845 72.834 90.4845C75.2958 90.4845 76.3029 90.394 75.072 90.2833H75.0721ZM116.558 88.3499C117.288 87.4006 117.268 87.3848 116.18 88.061C115.547 88.4543 115.156 88.9811 115.311 89.2316C115.466 89.482 115.636 89.6121 115.689 89.5206C115.742 89.429 116.133 88.9023 116.558 88.35V88.3499ZM118.647 87.9115C118.647 87.6183 118.298 87.6752 117.857 88.0402C117.423 88.4001 117.067 88.931 117.067 89.2201C117.067 89.5133 117.416 89.4564 117.857 89.0914C118.291 88.7315 118.647 88.2006 118.647 87.9115V87.9115ZM114.088 87.2786C114.283 86.7705 114.127 86.6139 113.62 86.808C113.202 86.9682 112.992 87.3109 113.152 87.5697C113.555 88.2215 113.748 88.1615 114.088 87.2786L114.088 87.2786ZM132.93 86.3232C132.41 85.808 132.349 85.8684 132.635 86.6175C132.833 87.1358 133.127 87.4275 133.289 87.2657C133.451 87.1039 133.29 86.6798 132.93 86.3232L132.93 86.3232ZM124.072 82.1981L123.969 80.4189L124.569 81.8643C125.218 83.4267 126.204 83.9066 125.649 82.3899C125.114 80.9267 123.386 78.8698 123.386 79.696C123.386 80.0991 122.912 80.7243 122.333 81.0854C121.346 81.7004 120.892 83.7992 121.595 84.5001C121.768 84.673 122.419 84.6261 123.043 84.3958C123.93 84.0679 124.153 83.592 124.072 82.1981L124.072 82.1981ZM112.854 82.7841C113.535 82.345 113.521 82.2735 112.754 82.2665C112.264 82.2621 111.717 82.495 111.538 82.7841C111.126 83.4493 111.823 83.4493 112.854 82.7841H112.854ZM129.968 82.0458C129.968 81.5031 129.56 80.8021 129.061 80.488C127.808 79.699 127.05 80.6009 127.651 82.1662C128.209 83.6205 129.968 83.5292 129.968 82.0458V82.0458ZM136.287 81.7329C136.108 81.4438 135.679 81.2109 135.334 81.2154C134.957 81.2202 135.022 81.4268 135.497 81.7329C136.509 82.3855 136.691 82.3855 136.287 81.7329H136.287ZM120.52 77.9574C120.675 77.4694 121.206 76.9562 121.699 76.8171C122.192 76.678 121.411 76.6037 119.963 76.652C117.619 76.7301 117.311 76.8772 117.152 77.9942C117.055 78.6842 117.27 79.4312 117.632 79.6542C118.442 80.1537 120.139 79.1567 120.52 77.9574L120.52 77.9574ZM122.859 78.7134C122.859 78.5689 122.504 78.745 122.069 79.1049C121.635 79.4648 121.279 79.8775 121.279 80.022C121.279 80.1666 121.635 79.9904 122.069 79.6305C122.504 79.2706 122.859 78.8579 122.859 78.7134ZM111.006 78.5707C110.824 78.2769 110.454 78.1726 110.185 78.339C109.454 78.7895 109.591 79.1049 110.516 79.1049C110.967 79.1049 111.188 78.8645 111.006 78.5707H111.006ZM127.598 78.5793C127.598 78.2902 127.184 78.0573 126.677 78.0618C125.889 78.0686 125.87 78.1439 126.545 78.5793C127.539 79.2203 127.598 79.2203 127.598 78.5793H127.598ZM125.492 77.0025C125.492 76.7134 125.255 76.4769 124.965 76.4769C124.676 76.4769 124.439 76.7134 124.439 77.0025C124.439 77.2916 124.676 77.5281 124.965 77.5281C125.255 77.5281 125.492 77.2916 125.492 77.0025ZM112.459 76.1288C112.097 75.983 111.505 75.983 111.142 76.1288C110.78 76.2746 111.077 76.3939 111.801 76.3939C112.525 76.3939 112.821 76.2746 112.459 76.1288H112.459ZM127.79 75.6916C127.624 75.2596 127.25 75.0526 126.96 75.2316C126.636 75.4318 126.708 75.7311 127.147 76.009C128.106 76.6154 128.139 76.5992 127.79 75.6916ZM132.337 75.4952C132.337 75.2784 132.025 74.6749 131.643 74.1539C130.993 73.2664 130.894 73.2624 130.064 74.091C128.866 75.2865 128.95 75.8406 130.363 76.0731C131.673 76.2887 132.337 76.0943 132.337 75.4952V75.4952ZM121.03 74.4761C120.868 74.3142 120.443 74.4757 120.085 74.8349C119.569 75.354 119.63 75.4144 120.38 75.1292C120.9 74.9318 121.192 74.6379 121.03 74.476L121.03 74.4761ZM118.805 73.7454C117.336 73.0369 117.047 71.3655 118.073 69.5129C118.989 67.8586 119.313 67.7585 120.221 68.8501C120.579 69.2806 121.082 69.5031 121.339 69.3447C121.595 69.1863 121.806 69.3072 121.806 69.6133C121.806 69.9194 122.145 70.1699 122.56 70.1699C122.98 70.1699 123.413 70.8125 123.535 71.6153C123.659 72.4369 123.811 71.8131 123.885 70.1699C123.984 68.0057 124.11 67.6094 124.389 68.5931C124.76 69.9038 124.762 69.9041 125.077 68.7245C125.622 66.6831 126.464 67.3966 126.162 69.6443C125.935 71.3369 126.043 71.7467 126.72 71.7467C127.183 71.7467 127.806 71.2892 128.106 70.73C128.814 69.4088 128.806 69.3485 127.776 68.3201C127.036 67.582 127.016 67.3745 127.644 66.9825C128.154 66.6645 128.444 66.7744 128.565 67.3316C128.665 67.7851 129.072 68.0187 129.487 67.8598C130.33 67.5368 130.51 68.359 129.704 68.8559C129.415 69.0346 129.178 69.6688 129.178 70.2653C129.178 71.136 129.323 71.2293 129.916 70.7383C130.322 70.402 130.814 69.4861 131.01 68.703C131.206 67.9199 131.74 66.8652 132.196 66.3594C132.953 65.5211 132.952 65.4396 132.182 65.4396C131.717 65.4396 131.129 65.8093 130.876 66.2612C130.461 67.0008 130.343 66.9965 129.696 66.2185C129.13 65.5371 129.11 65.1423 129.604 64.3528C130.366 63.1357 130.389 62.8116 129.714 62.8116C129.43 62.8116 129.049 63.4029 128.867 64.1256C128.426 65.8795 127.613 65.7992 127.537 63.9942C127.492 62.9402 127.406 62.8234 127.217 63.5628C126.603 65.9654 125.2 66.212 124.015 64.1256C123.46 63.15 123.416 63.1806 123.401 64.5508C123.392 65.3981 123.161 65.8888 122.859 65.7024C122.569 65.5237 122.332 65.628 122.332 65.9342C122.332 66.2403 121.858 66.4908 121.279 66.4908C120.7 66.4908 120.226 66.2601 120.226 65.9782C120.226 65.6481 119.734 65.6523 118.844 65.9899C117.731 66.4122 117.325 66.333 116.755 65.5827C116.365 65.0704 116.039 64.8995 116.03 65.2031C116.021 65.5066 116.294 66.0348 116.636 66.3769C117.744 67.4824 116.555 67.7775 114.907 66.8061C112.931 65.6406 112.247 66.0698 114.124 67.2977C115.798 68.3922 115.845 69.0089 114.302 69.628C113.65 69.8895 113.413 70.1184 113.775 70.1367C114.137 70.155 114.433 70.3655 114.433 70.6046C114.433 70.8436 113.663 70.9687 112.722 70.8825C111.095 70.7337 111.115 70.7601 113.117 71.4152C114.275 71.7943 115.164 72.2605 115.092 72.4512C115.019 72.6419 114.96 72.987 114.96 73.218C114.96 73.4491 114.071 73.579 112.985 73.5067C111.092 73.3808 111.076 73.3934 112.59 73.8129C113.459 74.0535 115.473 74.2624 117.066 74.277C119.474 74.2991 119.767 74.2095 118.805 73.7456L118.805 73.7454ZM122.859 73.7176C122.859 73.102 122.092 73.2552 121.871 73.9146C121.763 74.2399 121.94 74.4172 122.266 74.3089C122.592 74.2005 122.859 73.9344 122.859 73.7176V73.7176ZM121.806 72.0094C121.806 71.368 120.705 70.6954 119.656 70.6954C118.983 70.6954 119.051 71.9406 119.763 72.6516C120.478 73.3651 121.806 72.9477 121.806 72.0094H121.806ZM114.565 72.4497C114.203 72.3039 113.61 72.3039 113.248 72.4497C112.886 72.5955 113.183 72.7148 113.907 72.7148C114.631 72.7148 114.927 72.5955 114.565 72.4497H114.565ZM138.37 72.3085C138.908 71.4396 137.788 71.2318 136.759 72.0095C135.792 72.7395 135.798 72.7649 136.913 72.7811C137.548 72.7903 138.203 72.5776 138.37 72.3085L138.37 72.3085ZM108.039 69.5128C107.143 68.2372 107.08 67.9984 107.793 68.57C108.318 68.9909 109.049 69.3795 109.418 69.4336C110.446 69.5842 110.221 67.1796 109.114 66.1795C108.578 65.6951 108.264 65.0966 108.417 64.8495C108.57 64.6023 108.29 64.5554 107.795 64.7451C107.019 65.0423 107.104 65.2567 108.405 66.2926C109.236 66.954 109.792 67.6184 109.642 67.7691C109.491 67.9198 108.197 66.8113 106.766 65.3059C105.335 63.8005 104.786 63.1093 105.546 63.7698C106.701 64.7745 106.977 64.84 107.234 64.1707C107.403 63.7306 107.278 63.2082 106.957 63.0097C106.578 62.776 106.522 62.8913 106.798 63.3369C107.082 63.7956 107.018 63.8982 106.607 63.6446C106.268 63.4354 106.117 63.0599 106.272 62.8102C106.426 62.5604 102.295 58.0829 97.0908 52.8602C91.8866 47.6376 87.8626 43.3644 88.1484 43.3644C88.4341 43.3644 93.6511 48.355 99.742 54.4551C105.833 60.5552 110.965 65.3968 111.148 65.2148C111.618 64.7451 106.184 59.2154 91.0949 44.8096C88.4455 42.2802 86.5884 40.2105 86.9682 40.2105C87.348 40.2105 93.2626 45.753 100.112 52.5273C109.923 62.2298 112.716 64.7197 113.273 64.2586C113.662 63.9365 113.87 63.2534 113.736 62.7407C113.531 61.9608 113.741 61.8581 115.015 62.1127C115.854 62.28 116.536 62.21 116.531 61.957C116.526 61.7041 114.73 59.605 112.541 57.2922C106.758 51.1848 106.583 50.1036 112.322 55.9463C115.594 59.2761 116.91 60.3563 116.328 59.2312C115.408 57.4556 115.717 56.9496 116.81 58.4416C117.404 59.2529 117.49 59.2305 117.825 58.1788C118.295 56.6986 118.998 56.7125 119.488 58.212C119.801 59.1675 120.062 58.688 120.851 55.7154C122.306 50.236 122.424 38.3391 121.062 34.4286C118.708 27.6678 115.972 23.8526 107.868 16.0326C103.544 11.8601 103.38 12.2042 107.214 17.403C109.628 20.6761 110.747 22.5062 110.747 23.1798C110.747 23.3907 109.089 21.1537 107.061 18.2086C105.034 15.2636 103.375 12.62 103.375 12.3342C103.375 11.5577 97.8377 9.08932 96.5445 9.28922C95.5598 9.44147 96.0358 10.2528 100.452 15.9504C103.218 19.5186 105.474 22.5933 105.465 22.783C105.456 22.9727 105.095 22.6613 104.663 22.0908C104.231 21.5204 102.283 19.0657 100.335 16.6358C98.3872 14.206 96.3192 11.5513 95.74 10.7364C95.1608 9.92146 94.2508 9.14062 93.7179 9.00113C92.0052 8.55289 86.8584 9.66545 82.1997 11.491C77.7117 13.2496 76.2776 13.4064 71.9123 12.6155C70.9711 12.445 70.2186 12.4935 70.2402 12.7234C70.2619 12.9534 72.3353 14.889 74.8479 17.0248C77.3606 19.1607 81.7858 23.0909 84.682 25.759C87.5781 28.427 90.6586 31.2249 91.5273 31.9766C92.3961 32.7284 92.8701 33.3444 92.5805 33.3453C92.2909 33.3462 90.8691 32.2593 89.421 30.9298C71.6417 14.6068 69.4798 12.8382 67.7301 13.1891C63.5035 14.0362 62.5227 17.7927 64.1417 26.9296C64.5635 29.3098 64.7738 31.6082 64.6089 32.0369C64.4322 32.4966 64.9238 33.3757 65.807 34.1795C67.0357 35.2978 67.092 35.4392 66.1199 34.9668C65.4683 34.6501 64.9351 34.4988 64.9351 34.6304C64.9351 35.0438 68.012 43.4915 69.2728 46.5393C70.4289 49.3343 73.7383 54.9264 74.2365 54.9264C74.3683 54.9264 74.3087 54.6307 74.1043 54.2694C73.8998 53.9081 74.656 54.4453 75.7846 55.4632C80.3618 59.5919 80.6205 59.763 81.7413 59.4083C83.726 58.7796 83.658 58.6838 76.9028 52.5936C74.678 50.5878 72.9699 48.8344 73.107 48.6976C73.2441 48.5608 74.8384 49.8487 76.6498 51.5597C78.4612 53.2708 80.8437 55.4413 81.9445 56.3828C83.0454 57.3243 83.8013 58.3281 83.6248 58.6131C83.4483 58.8982 83.6539 59.1315 84.0817 59.1315C84.5096 59.1315 85.2937 59.294 85.8242 59.4927C86.704 59.8222 86.7193 59.7671 85.9989 58.8662C85.2968 57.9883 85.2968 57.9278 85.9989 58.3222C86.4334 58.5662 87.2627 59.142 87.8419 59.6019C88.5668 60.1773 88.4971 59.9886 87.6185 58.9963C86.9164 58.2034 86.5911 57.5547 86.8958 57.5547C87.2004 57.5547 87.7554 57.9224 88.1291 58.3718C88.9823 59.398 91.0295 60.5528 90.511 59.7155C90.2902 59.3589 90.4646 59.2614 90.974 59.4565C91.4235 59.6287 91.7913 59.9747 91.7913 60.2254C91.7913 60.4761 92.4904 61.0421 93.3448 61.4832C95.1091 62.3938 95.6682 62.493 95.2525 61.8217C94.7674 61.0382 101.636 65.5424 105.373 68.4578C107.316 69.9739 108.981 71.2156 109.073 71.2172C109.165 71.2188 108.7 70.4515 108.04 69.512L108.039 69.5128ZM77.9715 55.9222L74.6766 52.7123L78.2309 55.7529C80.1859 57.4252 81.7853 58.8698 81.7853 58.9629C81.7853 59.4873 80.9356 58.8099 77.9715 55.9223V55.9222ZM81.6838 54.5663C75.9579 49.4125 71.2372 44.758 69.5235 42.5761C68.6154 41.4198 70.4696 43.0794 73.6441 46.2641C76.8186 49.4488 80.9091 53.2922 82.7343 54.805C84.5594 56.3179 85.817 57.5555 85.5288 57.5555C85.2407 57.5555 83.5104 56.2104 81.6836 54.5663H81.6838ZM81.7744 49.277C78.4985 45.7953 78.3007 45.13 81.3444 47.8321C82.9726 49.2775 84.3303 50.6374 84.3615 50.8542C84.4874 51.7276 83.5323 51.1453 81.7744 49.277V49.277ZM78.1424 48.6138C76.8628 47.4619 75.9298 46.4059 76.0689 46.267C76.2081 46.1281 77.3636 47.0739 78.6367 48.3687C81.5024 51.2831 81.2479 51.4093 78.1424 48.6138V48.6138ZM97.0448 42.69C94.6938 40.5016 93.0403 38.634 93.4538 38.634C93.5708 38.634 95.0734 40.0531 96.7931 41.7876C100.395 45.4212 100.541 45.9445 97.045 42.6898L97.0448 42.69ZM68.3074 39.5539L67.3043 38.3714L68.4891 39.3726C69.1407 39.9233 69.6739 40.4555 69.6739 40.5552C69.6739 40.9758 69.2501 40.6653 68.3074 39.5539ZM68.884 38.1086C66.224 35.3896 66.8517 35.385 69.7826 38.102C71.0261 39.2547 71.7954 40.2008 71.4921 40.2044C71.1889 40.208 70.0152 39.2649 68.884 38.1086L68.884 38.1086ZM83.8914 31.1923C81.4297 29.1639 78.5861 26.7554 77.5726 25.8399C76.559 24.9243 73.7746 22.5598 71.3853 20.5848C67.4576 17.3387 65.9464 15.8278 67.6994 16.9C68.7666 17.5528 82.1741 28.8944 87.0072 33.2329C90.2588 36.1518 88.5603 35.0394 83.8918 31.1926L83.8914 31.1923ZM86.6764 30.9086C84.9999 29.5503 81.9538 27.0078 79.9075 25.2585C76.652 22.4757 73.4371 19.7391 69.4875 16.3891C68.866 15.8619 68.6379 15.5071 68.9807 15.6007C69.3234 15.6943 73.9145 19.4326 79.1833 23.908C84.452 28.3834 89.1476 32.3374 89.6183 32.695C90.0889 33.0527 90.3052 33.3526 90.0993 33.3618C89.8933 33.371 88.3531 32.2671 86.6766 30.9088L86.6764 30.9086ZM117.131 29.4287C115.575 26.7958 115.731 26.4134 117.376 28.8296C118.126 29.9309 118.629 30.942 118.494 31.0764C118.36 31.2108 117.746 30.4694 117.131 29.4287H117.131ZM114.394 26.9847C114.035 26.3096 113.397 25.225 112.974 24.5745C112.551 23.9241 112.32 23.392 112.459 23.392C112.901 23.392 115.577 27.6812 115.305 27.9529C115.162 28.0957 114.752 27.6601 114.394 26.9849V26.9847ZM85.4059 23.5716C83.5592 21.936 81.9299 20.4539 81.7851 20.2781C81.6403 20.1022 80.7434 19.3202 79.792 18.5401C78.0716 17.1293 74.7242 13.4206 75.7294 14.039C76.019 14.2172 78.2702 16.2351 80.732 18.5231C83.1938 20.8111 86.1558 23.5458 87.3141 24.6001C88.4725 25.6543 89.2726 26.5232 89.0919 26.531C88.9112 26.5388 87.2525 25.207 85.406 23.5713L85.4059 23.5716ZM84.9315 20.3511C82.3367 18.2251 80.8956 16.815 79.69 15.2227C79.0382 14.3617 81.5095 16.51 86.773 21.3801C88.5498 23.0241 87.4303 22.3986 84.9315 20.3513L84.9315 20.3511ZM103.638 16.9794C99.4647 11.335 98.6973 10.1231 100.711 12.3547C103.025 14.9202 107.653 21.2939 107.184 21.2711C106.972 21.2608 105.376 19.3295 103.638 16.9794ZM94.1038 16.4281C92.1067 14.2674 91.0547 12.8804 91.4132 12.8804C91.5665 12.8804 92.6839 14.063 93.8963 15.5084C96.3787 18.4678 96.5045 19.0256 94.1038 16.4281L94.1038 16.4281ZM95.6856 14.8513C93.3791 12.1958 92.6939 11.3036 92.9614 11.3036C93.1162 11.3036 94.1166 12.3679 95.1846 13.6688C97.1625 16.078 97.5542 17.0027 95.6856 14.8513V14.8513ZM88.5554 13.8001C87.704 12.5881 87.6254 12.3084 88.285 12.8371C89.2235 13.5892 90.4566 15.5083 90.0015 15.5083C89.8662 15.5083 89.2155 14.7396 88.5554 13.8001H88.5554ZM84.4287 13.6814C84.0134 13.1819 83.9734 12.8803 84.3226 12.8803C84.959 12.8803 85.7009 13.8775 85.3358 14.2419C85.2032 14.3742 84.7951 14.122 84.4287 13.6814H84.4287ZM114.201 68.3147C113.165 67.5326 112.327 67.3126 112.327 67.8227C112.327 68.0781 114.338 69.0305 114.96 69.0697C115.104 69.0789 114.763 68.7391 114.201 68.3147ZM140.355 65.7139C141.145 65.3252 142.24 65.1243 142.788 65.2674C143.963 65.574 148.423 63.4307 151.952 60.8635C153.327 59.8627 154.452 59.2414 154.45 59.4828C154.448 59.7243 152.736 61.0453 150.646 62.4184C148.555 63.7915 147.15 64.915 147.523 64.915C148.823 64.915 153.867 62.1382 157.7 59.3119C161.175 56.7495 160.109 58.1121 156.266 61.1451L154.716 62.3684L156.296 61.4587C158.941 59.9358 159.881 59.2118 162.477 56.6981C163.85 55.3696 164.861 54.1021 164.724 53.8814C164.392 53.3447 168.651 48.5472 169.174 48.8696C169.65 49.1634 170.888 47.8471 171.815 46.0614C172.235 45.2528 172.259 44.9408 171.883 45.1726C170.973 45.734 171.226 44.8583 172.634 42.5771C174.751 39.1467 174.113 38.7262 171.913 42.1014C168.452 47.4096 165.721 50.4984 161.192 54.2275C155.502 58.9124 154.707 59.5136 155.126 58.8147C155.318 58.4949 157.678 56.4237 160.371 54.2121C165.62 49.9014 168.646 46.4133 172.259 40.5081L174.53 36.7954L174.228 32.0649C174.062 29.4633 173.941 25.903 173.96 24.1531C174.008 19.6427 172.659 13.7814 170.712 10.0411C169.046 6.84153 166.779 3.50111 165.777 2.77081C164.523 1.85599 163.016 2.45475 161.531 4.45851C160.679 5.608 159.785 6.55406 159.543 6.56091C159.301 6.56777 159.835 5.65235 160.728 4.52671C162.517 2.27177 162.672 1.84122 161.694 1.84657C161.332 1.84855 160.496 2.64103 159.837 3.60766C159.177 4.57429 157.992 5.93178 157.204 6.62433L155.77 7.88353L157.137 6.30866C157.889 5.44248 158.893 4.15313 159.368 3.44346C160.206 2.19269 160.188 2.13516 158.793 1.56595C157.446 1.01632 157.243 1.12412 155.616 3.25045C154.66 4.49992 153.743 5.52218 153.577 5.52218C153.411 5.52218 153.853 4.75349 154.56 3.814C156.775 0.86856 156.785 0.776174 154.874 1.12261C151.734 1.69176 143.299 6.87915 139.556 10.5422C137.613 12.4441 136.023 14.1924 136.023 14.4273C136.023 14.6622 135.608 15.179 135.101 15.5757C134.254 16.239 134.239 16.2124 134.909 15.2459C135.309 14.6677 133.886 15.9686 131.745 18.1366C129.253 20.6603 127.165 23.4023 125.942 25.7579C123.703 30.0705 122.977 32.1162 123.882 31.5577C124.264 31.3225 124.186 31.9131 123.675 33.1328C122.769 35.299 122.665 36.0072 123.253 36.0069C123.471 36.0068 124.596 33.8867 125.755 31.2957C126.913 28.7047 128.282 26.0439 128.796 25.3828C129.31 24.7217 128.54 26.6437 127.085 29.6534C124.526 34.945 123.884 36.9369 124.949 36.2796C125.23 36.1064 125.111 36.95 124.686 38.1543C123.034 42.8284 124.108 41.777 126.971 35.9189C128.619 32.5462 130.167 29.5894 130.411 29.3491C130.866 28.9008 129.697 31.5936 126.327 38.7558C124.236 43.2008 123.336 46.4107 124.356 45.7814C124.691 45.5748 124.965 45.2022 124.965 44.9534C124.965 44.7047 126.316 41.7031 127.967 38.283C129.617 34.8628 130.943 31.7442 130.912 31.352C130.875 30.8916 131.036 30.8195 131.366 31.1485C131.696 31.4775 130.81 33.8718 128.868 37.9058C124.546 46.8796 123.957 48.2534 123.576 50.2501C123.388 51.2332 123.351 51.9193 123.494 51.7748C123.636 51.6303 125.127 48.4915 126.805 44.7996C128.484 41.1077 129.955 38.1849 130.075 38.3044C130.195 38.4239 129.551 40.1436 128.645 42.1261C126.722 46.3326 123.659 54.0868 123.173 55.9797C122.987 56.7024 124.241 54.4555 125.96 50.9865C127.678 47.5175 129.105 44.8233 129.131 44.9995C129.179 45.3261 125.864 52.8701 124.945 54.5271C124.666 55.0291 124.448 55.7386 124.46 56.1039C124.473 56.4692 124.937 55.9402 125.491 54.9284C126.124 53.775 126.509 53.4319 126.523 54.0087C126.535 54.5146 126.796 54.9284 127.102 54.9284C127.409 54.9284 127.487 55.2241 127.275 55.5854C127.063 55.9468 127.358 55.8338 127.931 55.3344C128.503 54.8349 129.414 52.9496 129.956 51.1448C131.037 47.542 140.998 27.4701 143.989 22.8672C145.023 21.2772 146.27 19.3185 146.761 18.5142C147.266 17.688 147.908 17.209 148.239 17.4128C148.582 17.6241 148.676 17.5353 148.468 17.1983C148.272 16.882 148.59 15.8402 149.174 14.8834C149.759 13.9265 150.238 13.4532 150.239 13.8316C150.24 14.2373 150.503 14.3577 150.88 14.125C151.232 13.908 150.936 14.7175 150.222 15.924C149.508 17.1305 148.783 18.0628 148.61 17.9958C148.126 17.8078 146.555 19.2469 146.555 19.8783C146.555 20.1873 146.903 19.9809 147.328 19.4198C148.286 18.1546 148.361 18.6481 147.463 20.3104C145.856 23.2822 143.851 26.0394 143.469 25.8032C143.241 25.6624 143.071 26.0676 143.093 26.7036C143.116 27.3994 142.854 27.8025 142.434 27.7157C142.051 27.6362 141.874 27.7924 142.041 28.0627C142.209 28.3331 140.909 31.2845 139.153 34.6214C136.482 39.6982 130.146 54.2944 129.427 57.0307C128.655 59.9643 128.696 60.1908 129.64 58.2132C131.002 55.3588 131.466 55.331 130.465 58.1638C129.494 60.9108 129.851 61.4045 131.024 58.9371C131.51 57.9152 132.243 56.8008 132.654 56.4608C133.164 56.0384 133.069 56.5718 132.353 58.1448C131.239 60.5955 130.965 62.8121 131.775 62.8121C132.045 62.8121 132.41 62.3605 132.585 61.8084C132.761 61.2564 133.287 60.4877 133.755 60.1002C134.525 59.4629 134.523 59.556 133.735 61.0779C132.569 63.328 132.637 63.7013 133.993 62.4994C135.115 61.5054 135.119 61.5065 134.52 62.6462C133.668 64.268 133.765 65.085 134.765 64.702C135.4 64.459 135.528 64.5999 135.274 65.2607C134.567 67.0991 137.083 67.3232 140.355 65.7134L140.355 65.7139ZM138.919 65.1647C140.518 63.8703 142.019 63.11 141.582 63.8151C141.384 64.1351 140.467 64.7614 139.544 65.207C137.986 65.9589 137.941 65.9559 138.919 65.1647L138.919 65.1647ZM142.342 64.7308C142.342 64.6294 143.526 63.8114 144.975 62.9129C148.234 60.8904 148.427 61.1479 145.275 63.313C143.093 64.8111 142.342 65.1744 142.342 64.7308H142.342ZM148.66 60.4992C148.66 60.3833 149.431 59.8348 150.372 59.2805C151.313 58.7262 154.038 56.6973 156.427 54.7718C158.817 52.8463 160.772 51.3917 160.772 51.5391C160.772 51.9643 157.433 54.7782 153.276 57.8561C149.789 60.4388 148.661 61.0846 148.661 60.4991L148.66 60.4992ZM148.95 57.6701C149.225 57.4435 150.858 56.32 152.577 55.1735C154.297 54.027 157.851 51.2371 160.476 48.9735C165.239 44.8653 165.241 44.864 161.647 48.3557C157.97 51.9274 149.96 58.0823 148.988 58.0823C148.654 58.0823 148.639 57.9261 148.95 57.6702L148.95 57.6701ZM131.81 55.1843C131.81 55.0358 132.044 54.5036 132.329 54.0017C132.614 53.4997 134.155 50.3098 135.754 46.9133C137.352 43.5169 138.78 40.7377 138.928 40.7377C139.26 40.7377 138.47 42.576 135.031 49.8041C132.686 54.7349 131.81 56.198 131.81 55.1844L131.81 55.1843ZM156.559 49.6783C157.573 48.7654 159.35 47.3049 160.508 46.4328L162.615 44.8469L160.64 46.6586C159.554 47.655 158.665 48.7548 158.665 49.1026C158.665 49.4503 158.456 49.6059 158.201 49.4482C157.945 49.2906 157.057 49.6513 156.226 50.2499C155.17 51.0109 155.27 50.8391 156.559 49.6784L156.559 49.6783ZM161.343 50.8553C161.368 50.6385 162.375 49.6442 163.581 48.6458L165.775 46.8304L163.693 49.04C161.552 51.3124 161.267 51.5331 161.343 50.8553V50.8553ZM169.221 48.3587C169.221 48.0696 169.684 47.2418 170.251 46.5191C170.817 45.7964 171.28 45.4416 171.28 45.7307C171.28 46.0198 170.817 46.8476 170.251 47.5703C169.684 48.2929 169.221 48.6477 169.221 48.3587V48.3587ZM132.352 42.4387C132.343 42.0734 132.56 41.3639 132.833 40.8619C133.106 40.3599 135.079 36.4016 137.218 32.0653C140.987 24.4229 144.414 18.5449 145.484 17.8845C145.772 17.7074 144.833 19.4509 143.399 21.759C141.965 24.0671 138.895 29.8138 136.579 34.5292C134.262 39.2446 132.36 42.8038 132.352 42.4385L132.352 42.4387ZM169.969 39.8273C170.703 38.7484 171.304 37.5264 171.304 37.1117C171.304 36.697 171.472 36.5249 171.677 36.7293C172.102 37.1544 169.704 41.7889 169.058 41.7889C168.825 41.7889 169.234 40.9062 169.969 39.8273V39.8273ZM140.296 38.1156C140.945 36.9625 141.562 36.1049 141.667 36.2097C141.894 36.4356 139.717 40.2121 139.36 40.2121C139.226 40.2121 139.647 39.2687 140.296 38.1156V38.1156ZM125.504 35.3353C125.484 34.6685 128.7 28.5226 128.942 28.7642C129.064 28.8861 128.343 30.5065 127.34 32.3651C126.336 34.2236 125.51 35.5603 125.504 35.3352L125.504 35.3353ZM142.869 32.8537C143.179 32.2756 143.551 31.8025 143.696 31.8025C143.841 31.8025 143.705 32.2756 143.395 32.8537C143.085 33.4319 142.713 33.9049 142.568 33.9049C142.424 33.9049 142.559 33.4319 142.869 32.8537ZM143.922 31.0442C143.922 30.6555 146.116 27.0722 146.354 27.0722C146.476 27.0722 146.093 28.0183 145.502 29.1746C144.559 31.0198 143.922 31.7732 143.922 31.0442V31.0442ZM124.439 30.5552C124.439 29.9876 126.53 26.0209 126.83 26.0209C126.974 26.0209 126.585 27.0261 125.964 28.2546C124.744 30.6707 124.439 31.1306 124.439 30.5551V30.5552ZM129.968 26.5467C130.417 25.6795 130.903 24.9699 131.048 24.9699C131.193 24.9699 130.944 25.6795 130.494 26.5467C130.045 27.414 129.559 28.1235 129.414 28.1235C129.269 28.1235 129.518 27.414 129.968 26.5467ZM137.619 27.2146C137.61 26.8593 138.783 24.7306 140.226 22.4841C141.669 20.2377 142.854 18.6429 142.859 18.94C142.864 19.237 142.454 20.0573 141.947 20.7628C141.44 21.4683 140.263 23.354 139.33 24.953C138.398 26.552 137.628 27.5698 137.619 27.2144V27.2146ZM130.757 20.7652C131.376 19.898 132.001 19.1884 132.146 19.1884C132.29 19.1884 131.903 19.898 131.284 20.7652C130.665 21.6325 130.041 22.342 129.896 22.342C129.751 22.342 130.139 21.6325 130.757 20.7652ZM157.132 3.62125C157.831 2.71982 158.509 2.07659 158.638 2.19179C158.767 2.30699 158.195 3.0445 157.367 3.83072L155.86 5.26018L157.132 3.62128V3.62125ZM121.097 63.7214C120.953 63.3656 120.844 63.784 120.854 64.6512C120.865 65.5184 120.983 65.8096 121.117 65.2982C121.25 64.7868 121.241 64.0772 121.097 63.7214ZM118.482 62.943C118.349 62.4371 118.241 62.851 118.241 63.8628C118.241 64.8745 118.349 65.2884 118.482 64.7826C118.614 64.2767 118.614 63.4488 118.482 62.943ZM119.172 59.1325C118.835 58.5049 118.442 58.1096 118.297 58.2541C118.152 58.3987 118.309 59.0305 118.645 59.6581C118.982 60.2858 119.376 60.6811 119.521 60.5365C119.665 60.392 119.508 59.7602 119.172 59.1325ZM123.761 59.5267C123.774 59.1654 123.949 58.3967 124.148 57.8186C124.39 57.117 124.242 57.2045 123.703 58.0814C122.782 59.5795 122.665 60.1838 123.297 60.1838C123.538 60.1838 123.747 59.8881 123.761 59.5268V59.5267ZM77.3082 57.5558C75.2109 55.4119 74.9386 55.2075 74.9386 55.7767C74.9386 56.1503 78.6974 59.6583 79.0978 59.6583C79.2448 59.6583 78.4395 58.7122 77.3083 57.5559L77.3082 57.5558ZM128.124 57.6999C128.124 56.0524 127.871 56.243 127.387 58.2568C127.152 59.2337 127.217 59.63 127.576 59.4084C127.877 59.2225 128.124 58.4537 128.124 57.6999L128.124 57.6999ZM126.528 55.1906C126.528 54.9015 126.298 55.0198 126.017 55.4534C125.737 55.887 125.507 56.4783 125.507 56.7674C125.507 57.0564 125.737 56.9382 126.017 56.5046C126.298 56.071 126.528 55.4797 126.528 55.1906ZM124.336 36.7808C124.174 36.619 123.879 36.9107 123.682 37.429C123.396 38.1781 123.456 38.2385 123.976 37.7233C124.336 37.3667 124.498 36.9426 124.336 36.7808L124.336 36.7808ZM146.075 21.7271C146.874 20.2359 146.356 20.5865 144.973 22.4723C144.197 23.5293 144.07 23.8964 144.639 23.4353C145.145 23.0254 145.791 22.2568 146.075 21.7271ZM149.914 15.7437C150.094 15.2759 150.006 15.065 149.708 15.2491C149.421 15.4257 149.187 15.7928 149.187 16.0648C149.187 16.8208 149.564 16.6542 149.914 15.7437ZM14.2396 131.81C15.1744 131.694 16.8331 131.692 17.9255 131.806C19.0179 131.92 18.2532 132.015 16.2259 132.017C14.1986 132.019 13.3047 131.926 14.2395 131.81H14.2396ZM10.5552 130.268C10.9117 130.124 11.6226 130.115 12.135 130.248C12.6473 130.382 12.3556 130.5 11.4868 130.51C10.6179 130.521 10.1987 130.412 10.5552 130.268H10.5552ZM14.3831 130.087C14.8175 129.807 15.8838 129.578 16.7527 129.578C17.9647 129.578 18.1485 129.696 17.5425 130.087C17.1081 130.367 16.0418 130.597 15.1729 130.597C13.9609 130.597 13.7771 130.478 14.3831 130.087ZM5.56291 115.299C7.06818 115.011 9.06009 115.011 10.5655 115.299C12.8101 115.729 12.5534 115.778 8.06423 115.778C3.57502 115.778 3.3185 115.729 5.56298 115.299H5.56291Z" fill="#CB6CE6"/>
</svg>
